<svg xmlns="http://www.w3.org/2000/svg" width="111.116" height="101.557" viewBox="0 0 111.116 101.557">
  <g id="Grupo_1101503" data-name="Grupo 1101503" transform="translate(-954.442 -17145.172)">
    <path id="_12068" data-name="12068" d="M89.032,72.155c-11.378-1.571-23.4-1.187-33.751,3.786-14.358,6.9-23.789,22.533-24.15,38.458s7.934,31.573,20.751,41.032S81.6,168.243,97.273,165.4c15.8-2.864,30.638-12.15,38.882-25.934,5.286-8.839,7.757-19.754,4.837-29.631-1.763-5.962-5.367-11.244-9.607-15.791A70.98,70.98,0,0,0,89.032,72.155Z" transform="translate(923.323 17080.348)" fill="#26aab7"/>
    <g id="buying" transform="translate(960.221 17145.172)">
      <g id="Grupo_1101421" data-name="Grupo 1101421" transform="translate(1.461 1.461)">
        <g id="Grupo_1101411" data-name="Grupo 1101411" transform="translate(0 8.764)">
          <path id="Trazado_879516" data-name="Trazado 879516" d="M44.818,53.74H38.976a14.593,14.593,0,0,0,5.842-11.685V33.291a8.771,8.771,0,0,0-8.764-8.764H25.83a10.138,10.138,0,0,1-7.157-2.921h-.146A8.771,8.771,0,0,0,9.764,30.37V42.055A14.6,14.6,0,0,0,22.077,56.471l-.029.219c-.2-.015-.394-.029-.6-.029A5.841,5.841,0,0,0,15.606,62.5V74.188H13.664a3.89,3.89,0,0,1-3.9-3.9A3.888,3.888,0,0,0,8.2,67.177L6.1,65.6a5.454,5.454,0,0,1-1.256-7.391l.774-1.168a7.244,7.244,0,0,0,1.227-4.046,7.27,7.27,0,0,0-2.907-5.813l-.76-.57A5.454,5.454,0,0,1,1.92,39.221a11.98,11.98,0,0,0,2-6.617V24.527A17.523,17.523,0,0,1,21.449,7H33.134A17.523,17.523,0,0,1,50.661,24.527V32.6a11.98,11.98,0,0,0,2,6.617,5.454,5.454,0,0,1-1.256,7.391l-.76.57a7.27,7.27,0,0,0-2.907,5.813,6.37,6.37,0,0,0,.044.745Z" transform="translate(-1 -7)" fill="#656d78"/>
        </g>
        <g id="Grupo_1101412" data-name="Grupo 1101412" transform="translate(14.606 58.235)">
          <path id="Trazado_879517" data-name="Trazado 879517" d="M29.462,44.449,22.685,41.06H19.764a13.134,13.134,0,0,1-2.293-.19l-.029.219c-.2-.015-.394-.029-.6-.029A5.841,5.841,0,0,0,11,46.9v8.764H22.685v2.921l8.778,1.344a.548.548,0,0,0,.015-.161l1.607-11.992a8.781,8.781,0,0,0-3.622-3.33Z" transform="translate(-11 -40.87)" fill="#b4dd7f"/>
        </g>
        <g id="Grupo_1101413" data-name="Grupo 1101413" transform="translate(35.069 55.503)">
          <path id="Trazado_879518" data-name="Trazado 879518" d="M42.523,39H27.917l-1.285,9.64L25.025,60.632a.548.548,0,0,1-.015.161L35.22,62.37l3.812-2.541a2.242,2.242,0,0,1,3.491,1.87v.672h1.461a4.286,4.286,0,0,1,1.782.38L47.664,39Z" transform="translate(-25.01 -39)" fill="#ffeaa7"/>
        </g>
        <g id="Grupo_1101414" data-name="Grupo 1101414" transform="translate(54.043 81.794)">
          <path id="Trazado_879519" data-name="Trazado 879519" d="M71.594,58.636a4.189,4.189,0,0,1-4.207,4.207H38a4.388,4.388,0,0,0,4.382-4.382A4.049,4.049,0,0,0,42.119,57H71.477l.1,1.3a2.476,2.476,0,0,1,.015.336Z" transform="translate(-38 -57)" fill="#d3a06c"/>
        </g>
        <g id="Grupo_1101415" data-name="Grupo 1101415" transform="translate(55.825 46.74)">
          <path id="Trazado_879520" data-name="Trazado 879520" d="M68.111,33H41.82l-.7,8.764-1.9,23.75a4.315,4.315,0,0,1,2.337,2.541H70.915Z" transform="translate(-39.22 -33)" fill="#cf9e76"/>
        </g>
        <g id="Grupo_1101416" data-name="Grupo 1101416" transform="translate(14.606 73.031)">
          <path id="Trazado_879521" data-name="Trazado 879521" d="M22.685,53.921l8.778,1.344,10.21,1.577L45.485,54.3a2.242,2.242,0,0,1,3.491,1.87v.672h1.461a4.362,4.362,0,0,1,4.119,2.921,4.049,4.049,0,0,1,.263,1.461,4.388,4.388,0,0,1-4.382,4.382H22.685A11.682,11.682,0,0,1,11,53.921V51H22.685Z" transform="translate(-11 -51)" fill="#f0d0b4"/>
        </g>
        <g id="Grupo_1101417" data-name="Grupo 1101417" transform="translate(8.764 23.37)">
          <path id="Trazado_879522" data-name="Trazado 879522" d="M42.055,28.685v8.764A14.606,14.606,0,0,1,27.449,52.055H21.606a13.134,13.134,0,0,1-2.293-.19A14.6,14.6,0,0,1,7,37.449V25.764A8.771,8.771,0,0,1,15.764,17h.146a10.138,10.138,0,0,0,7.157,2.921H33.291A8.771,8.771,0,0,1,42.055,28.685Z" transform="translate(-7 -17)" fill="#f0d0b4"/>
        </g>
        <g id="Grupo_1101418" data-name="Grupo 1101418" transform="translate(55.503)">
          <path id="Trazado_879523" data-name="Trazado 879523" d="M57.185,28.912a2.375,2.375,0,0,1-4.236,0L50.685,24.37H40.461A1.465,1.465,0,0,1,39,22.909V2.461A1.465,1.465,0,0,1,40.461,1H69.673a1.465,1.465,0,0,1,1.461,1.461V22.909a1.465,1.465,0,0,1-1.461,1.461H59.449Z" transform="translate(-39 -1)" fill="#e6e9ed"/>
        </g>
        <g id="Grupo_1101419" data-name="Grupo 1101419" transform="translate(64.267 5.842)">
          <path id="Trazado_879524" data-name="Trazado 879524" d="M59.606,8.666v.263a4.013,4.013,0,0,1-1.49,3.111L52.3,16.685,46.49,12.04A4.013,4.013,0,0,1,45,8.929V8.666a3.575,3.575,0,0,1,1.972-3.2A4.585,4.585,0,0,1,48.987,5a4.478,4.478,0,0,1,3.17,1.315l.146.146.146-.146A4.478,4.478,0,0,1,55.619,5a4.585,4.585,0,0,1,2.016.467,3.575,3.575,0,0,1,1.972,3.2Z" transform="translate(-45 -5)" fill="#ff826e"/>
        </g>
        <g id="Grupo_1101420" data-name="Grupo 1101420" transform="translate(17.527 43.818)">
          <path id="Trazado_879525" data-name="Trazado 879525" d="M13,31H30.527a8.777,8.777,0,0,1-8.764,8.764A8.771,8.771,0,0,1,13,31Z" transform="translate(-13 -31)" fill="#ff826e"/>
        </g>
      </g>
      <g id="Grupo_1101422" data-name="Grupo 1101422" transform="translate(0 0)">
        <path id="Trazado_879526" data-name="Trazado 879526" d="M15.842,24.921a2.924,2.924,0,0,1,2.921,2.921h2.921a5.842,5.842,0,0,0-11.685,0h2.921A2.924,2.924,0,0,1,15.842,24.921Z" transform="translate(4.606 10.134)"/>
        <path id="Trazado_879527" data-name="Trazado 879527" d="M25.842,24.921a2.924,2.924,0,0,1,2.921,2.921h2.921a5.842,5.842,0,0,0-11.685,0h2.921A2.924,2.924,0,0,1,25.842,24.921Z" transform="translate(9.212 10.134)"/>
        <path id="Trazado_879528" data-name="Trazado 879528" d="M12,31.461a10.224,10.224,0,0,0,20.449,0V30H12Zm17.38,1.461a7.3,7.3,0,0,1-14.311,0Z" transform="translate(5.527 13.818)"/>
        <path id="Trazado_879529" data-name="Trazado 879529" d="M70.134,0H40.921A2.924,2.924,0,0,0,38,2.921V23.37a2.924,2.924,0,0,0,2.921,2.921h9.322l1.864,3.729h0a3.826,3.826,0,0,0,6.842,0l1.864-3.729h9.322a2.924,2.924,0,0,0,2.921-2.921V2.921A2.924,2.924,0,0,0,70.134,0Zm0,23.37H59.007l-2.671,5.341a.933.933,0,0,1-1.614,0L52.048,23.37H40.921V2.921H70.134Z" transform="translate(17.503 0)"/>
        <path id="Trazado_879530" data-name="Trazado 879530" d="M52.764,19.01l6.72-5.375a5.42,5.42,0,0,0,2.043-4.253v-.26a5,5,0,0,0-2.781-4.5,6.072,6.072,0,0,0-5.983.383,6.074,6.074,0,0,0-5.984-.383A5,5,0,0,0,44,9.121v.26a5.428,5.428,0,0,0,2.043,4.256ZM46.921,9.121a2.1,2.1,0,0,1,1.164-1.886,3.058,3.058,0,0,1,1.357-.32,3.016,3.016,0,0,1,2.144.887l1.177,1.179L53.942,7.8a3.088,3.088,0,0,1,3.5-.568,2.1,2.1,0,0,1,1.164,1.887v.26a2.518,2.518,0,0,1-.948,1.975l-4.895,3.914-4.895-3.914a2.518,2.518,0,0,1-.948-1.975Z" transform="translate(20.267 1.848)"/>
        <path id="Trazado_879531" data-name="Trazado 879531" d="M49,26h2.921v2.921H49Z" transform="translate(22.57 11.976)"/>
        <path id="Trazado_879532" data-name="Trazado 879532" d="M53,26h2.921v2.921H53Z" transform="translate(24.413 11.976)"/>
        <path id="Trazado_879533" data-name="Trazado 879533" d="M45,26h2.921v2.921H45Z" transform="translate(20.728 11.976)"/>
        <path id="Trazado_879534" data-name="Trazado 879534" d="M87.524,43.976H58.537l-.7,8.764h-8.09A5.822,5.822,0,0,1,51.988,48.8l.748-.561a6.917,6.917,0,0,0,1.605-9.373,10.446,10.446,0,0,1-1.759-5.81V24.988A19.01,19.01,0,0,0,33.594,6H21.909A19.01,19.01,0,0,0,2.921,24.988v8.071a10.446,10.446,0,0,1-1.759,5.81,6.916,6.916,0,0,0,1.607,9.373l.748.561a5.851,5.851,0,0,1,2.325,4.654,5.792,5.792,0,0,1-.977,3.226l-.781,1.174A6.916,6.916,0,0,0,5.691,67.23l2.1,1.576a2.448,2.448,0,0,1,.973,1.947,5.362,5.362,0,0,0,5.356,5.356h.573A13.16,13.16,0,0,0,27.752,87.794H84.884a5.681,5.681,0,0,0,5.674-5.674c0-.15-.006-.3-.018-.454ZM68.649,46.9h8.764v4.382a4.382,4.382,0,0,1-8.764,0ZM27.931,58.844l5.952,2.975a7.37,7.37,0,0,1,2.746,2.394L35.281,74.328,29.212,73.4V62.964a7.267,7.267,0,0,0-1.281-4.12Zm-9.3-35.28a11.622,11.622,0,0,0,7.662,2.885H36.515a7.311,7.311,0,0,1,7.3,7.3v8.764A13.16,13.16,0,0,1,30.673,55.661H24.83A13.16,13.16,0,0,1,11.685,42.515V30.83a7.294,7.294,0,0,1,6.944-7.267Zm18.5,36.929a10.267,10.267,0,0,0-1.935-1.285l-1.757-.879a15.959,15.959,0,0,0,4.16-1.334Zm-15.215-1.91a4.387,4.387,0,0,1,4.382,4.382v7.3H17.527v-7.3A4.387,4.387,0,0,1,21.909,58.582Zm18.805-2.921h3.1v1.461a5.842,5.842,0,0,0,11.685,0V55.661h2.1L55.965,76.128c-.152-.013-.307-.019-.462-.019H55.42a3.7,3.7,0,0,0-5.674-2.3L46.4,76.039l-8.235-1.266Zm11.867,0v1.461a2.921,2.921,0,0,1-5.842,0V55.661Zm-40.9,15.093a5.379,5.379,0,0,0-2.143-4.284l-2.1-1.576a4,4,0,0,1-.927-5.416L7.3,58.3a8.705,8.705,0,0,0,1.468-4.846,8.779,8.779,0,0,0-3.5-6.991l-.748-.561a4,4,0,0,1-.926-5.416,13.352,13.352,0,0,0,2.249-7.43V24.988A16.086,16.086,0,0,1,21.909,8.921H33.594A16.086,16.086,0,0,1,49.661,24.988v8.071a13.359,13.359,0,0,0,2.249,7.43,4,4,0,0,1-.927,5.416l-.749.561a8.773,8.773,0,0,0-3.451,6.273H43.056A15.985,15.985,0,0,0,46.74,42.515V26.449A11.7,11.7,0,0,0,35.055,14.764v2.921a8.773,8.773,0,0,1,8.764,8.764v.162a10.185,10.185,0,0,0-7.3-3.083H26.291a8.773,8.773,0,0,1-8.764-8.764H14.606A11.607,11.607,0,0,0,16.4,20.952,10.232,10.232,0,0,0,8.764,30.83V42.515a16.07,16.07,0,0,0,9.031,14.422,7.3,7.3,0,0,0-3.189,6.026V73.188H14.12a2.438,2.438,0,0,1-2.435-2.435ZM55.5,84.873H27.752A10.237,10.237,0,0,1,17.527,74.649V73.188h8.764v.856L23.8,76.537,25.863,78.6l2.4-2.4L47.077,79.1l4.29-2.86a.808.808,0,0,1,1.215.65v2.14H55.5a2.921,2.921,0,1,1,0,5.842ZM61.233,46.9h4.494v4.382a7.3,7.3,0,1,0,14.606,0V46.9h4.494L87.4,79.031H60.553a5.878,5.878,0,0,0-1.737-1.89Zm23.65,37.976H60.561a5.8,5.8,0,0,0,.784-2.921H87.631c0,.055.006.112.006.168A2.757,2.757,0,0,1,84.884,84.873Z" transform="translate(0 2.764)"/>
      </g>
    </g>
  </g>
</svg>
