<svg xmlns="http://www.w3.org/2000/svg" width="111.116" height="95.049" viewBox="0 0 111.116 95.049">
  <g id="Grupo_1101500" data-name="Grupo 1101500" transform="translate(-534.442 -16785.68)">
    <path id="_12068" data-name="12068" d="M89.032,72.155c-11.378-1.571-23.4-1.187-33.751,3.786-14.358,6.9-23.789,22.533-24.15,38.458s7.934,31.573,20.751,41.032S81.6,168.243,97.273,165.4c15.8-2.864,30.638-12.15,38.882-25.934,5.286-8.839,7.757-19.754,4.837-29.631-1.763-5.962-5.367-11.244-9.607-15.791A70.98,70.98,0,0,0,89.032,72.155Z" transform="translate(503.323 16714.348)" fill="#26aab7"/>
    <g id="consumer" transform="translate(505.641 16785.68)">
      <path id="Trazado_879457" data-name="Trazado 879457" d="M120.219,338.663H64.539a2.68,2.68,0,0,1-2.68-2.68V314.206a11.612,11.612,0,0,1,11.612-11.612h5.036l8.324,2.774,5.549-2.774,5.549,2.774,8.324-2.774h5.036A11.612,11.612,0,0,1,122.9,314.206v21.777A2.68,2.68,0,0,1,120.219,338.663Z" transform="translate(-6.16 -248.538)" fill="#ffc344"/>
      <path id="Trazado_879458" data-name="Trazado 879458" d="M112.589,303a11.572,11.572,0,0,1,3.164,7.967v6.567a17.89,17.89,0,0,1-17.89,17.89h-36v.893a2.68,2.68,0,0,0,2.68,2.68h55.68a2.68,2.68,0,0,0,2.68-2.68V314.538A11.613,11.613,0,0,0,112.589,303Z" transform="translate(-6.16 -248.87)" fill="#feb237"/>
      <path id="Trazado_879459" data-name="Trazado 879459" d="M155.047,302.594l7.168,7.168a1.34,1.34,0,0,0,2.062-.2l4.643-6.964Z" transform="translate(-82.701 -248.538)" fill="#0055a3"/>
      <path id="Trazado_879460" data-name="Trazado 879460" d="M246.575,302.594l-7.168,7.168a1.34,1.34,0,0,1-2.062-.2l-4.643-6.964Z" transform="translate(-146.484 -248.538)" fill="#0055a3"/>
      <path id="Trazado_879461" data-name="Trazado 879461" d="M301.338,440.716H285a3.573,3.573,0,0,1-3.5-2.872l-2.2-11h27.745l-2.2,11A3.572,3.572,0,0,1,301.338,440.716Z" transform="translate(-184.754 -350.591)" fill="#ca2e43"/>
      <path id="Trazado_879462" data-name="Trazado 879462" d="M294.286,401.331H266.54a2.774,2.774,0,0,1,0-5.549h27.745a2.774,2.774,0,1,1,0,5.549Z" transform="translate(-171.998 -325.079)" fill="#e53950"/>
      <path id="Trazado_879463" data-name="Trazado 879463" d="M129.309,7.5H80.964a3.573,3.573,0,0,0-3.573,3.573v31.7a3.573,3.573,0,0,0,3.573,3.573H99.587l5.549,5.549,5.549-5.549h18.623a3.573,3.573,0,0,0,3.573-3.573v-31.7A3.573,3.573,0,0,0,129.309,7.5Z" transform="translate(-18.918 -6.16)" fill="#f2fbff"/>
      <path id="Trazado_879464" data-name="Trazado 879464" d="M336.124,7.5h-6.936a3.573,3.573,0,0,1,3.573,3.573v31.7a3.573,3.573,0,0,1-3.573,3.573h6.936A3.573,3.573,0,0,0,339.7,42.77v-31.7A3.573,3.573,0,0,0,336.124,7.5Z" transform="translate(-225.733 -6.16)" fill="#dff6fd"/>
      <g id="Grupo_1101399" data-name="Grupo 1101399" transform="translate(66.797 17.987)">
        <circle id="Elipse_11614" data-name="Elipse 11614" cx="2.774" cy="2.774" r="2.774" transform="translate(0)" fill="#0055a3"/>
        <circle id="Elipse_11615" data-name="Elipse 11615" cx="2.774" cy="2.774" r="2.774" transform="translate(11.098)" fill="#0055a3"/>
        <circle id="Elipse_11616" data-name="Elipse 11616" cx="2.774" cy="2.774" r="2.774" transform="translate(22.196)" fill="#0055a3"/>
        <circle id="Elipse_11617" data-name="Elipse 11617" cx="2.774" cy="2.774" r="2.774" transform="translate(33.294)" fill="#0055a3"/>
      </g>
      <circle id="Elipse_11618" data-name="Elipse 11618" cx="1.34" cy="1.34" r="1.34" transform="translate(84.879 63.814)"/>
      <circle id="Elipse_11619" data-name="Elipse 11619" cx="1.34" cy="1.34" r="1.34" transform="translate(84.879 69.37)"/>
      <circle id="Elipse_11620" data-name="Elipse 11620" cx="1.34" cy="1.34" r="1.34" transform="translate(84.879 74.925)"/>
      <circle id="Elipse_11621" data-name="Elipse 11621" cx="1.34" cy="1.34" r="1.34" transform="translate(84.879 80.481)"/>
      <path id="Trazado_879465" data-name="Trazado 879465" d="M126.4,315.855a4.119,4.119,0,0,0-4.114-4.114h-4.209v-3.7a12.966,12.966,0,0,0-12.952-12.952H67.31a12.966,12.966,0,0,0-12.952,12.952v9.881a1.34,1.34,0,1,0,2.68,0v-9.881A10.283,10.283,0,0,1,67.31,297.773h4.481l6.776,6.776a2.679,2.679,0,0,0,4.124-.408l3.528-5.292,3.528,5.292a2.679,2.679,0,0,0,4.124.408l6.776-6.776h4.481a10.285,10.285,0,0,1,10.249,9.587l-.214-.427a1.34,1.34,0,0,0-2.4,1.2l1.8,3.61h-.891a1.34,1.34,0,0,0,0,2.68h8.608a1.435,1.435,0,1,1,0,2.869H94.542a1.435,1.435,0,0,1,0-2.869h12.885a1.34,1.34,0,1,0,0-2.68h-5.168l1.805-3.61a1.34,1.34,0,0,0-2.4-1.2l-2.4,4.809H94.542a4.115,4.115,0,0,0-1.13,8.071l2.016,10.081a4.881,4.881,0,0,0,.442,1.27H68.137V313.08a1.34,1.34,0,0,0-2.68,0v18.082H58.378a1.341,1.341,0,0,1-1.34-1.34v-5.644a1.34,1.34,0,0,0-2.68,0v5.644a4.024,4.024,0,0,0,4.019,4.019h58.206a4.926,4.926,0,0,0,4.817-3.949l2.016-10.081a4.122,4.122,0,0,0,2.984-3.957Zm-45.941-13.2-4.881-4.881h8.135Zm11.515,0-3.254-4.881h8.135Zm26.8,26.713a2.239,2.239,0,0,1-2.19,1.795H100.246a2.239,2.239,0,0,1-2.19-1.795l-1.88-9.4h24.477Z" transform="translate(0 -242.377)"/>
      <path id="Trazado_879466" data-name="Trazado 879466" d="M387.189,455.834a1.34,1.34,0,0,0,1.577-1.051l.555-2.774a1.34,1.34,0,0,0-2.628-.526l-.555,2.775A1.34,1.34,0,0,0,387.189,455.834Z" transform="translate(-272.488 -369.944)"/>
      <path id="Trazado_879467" data-name="Trazado 879467" d="M350.793,455.861a1.34,1.34,0,0,0,1.34-1.34v-2.774a1.34,1.34,0,1,0-2.68,0v2.774A1.34,1.34,0,0,0,350.793,455.861Z" transform="translate(-242.378 -369.946)"/>
      <path id="Trazado_879468" data-name="Trazado 879468" d="M310.266,454.783a1.34,1.34,0,1,0,2.628-.526l-.555-2.774a1.34,1.34,0,1,0-2.628.526Z" transform="translate(-209.714 -369.944)"/>
      <path id="Trazado_879469" data-name="Trazado 879469" d="M74.8,41.523H92.872l5.157,5.157a1.34,1.34,0,0,0,1.895,0l5.157-5.157h18.069a4.918,4.918,0,0,0,4.913-4.913V4.913A4.918,4.918,0,0,0,123.149,0H74.8a4.918,4.918,0,0,0-4.913,4.913V27.16a1.34,1.34,0,0,0,2.68,0V4.913A2.235,2.235,0,0,1,74.8,2.68h48.345a2.235,2.235,0,0,1,2.233,2.233v31.7a2.235,2.235,0,0,1-2.233,2.233H104.525a1.339,1.339,0,0,0-.947.392l-4.6,4.6-4.6-4.6a1.339,1.339,0,0,0-.947-.392H74.8a2.235,2.235,0,0,1-2.233-2.233v-3.2a1.34,1.34,0,0,0-2.68,0v3.2A4.918,4.918,0,0,0,74.8,41.523Z" transform="translate(-12.757)"/>
      <path id="Trazado_879470" data-name="Trazado 879470" d="M124.714,97.3a4.114,4.114,0,1,0-4.114,4.114A4.119,4.119,0,0,0,124.714,97.3Zm-5.549,0a1.435,1.435,0,1,1,1.435,1.435A1.436,1.436,0,0,1,119.164,97.3Z" transform="translate(-51.028 -76.541)"/>
      <path id="Trazado_879471" data-name="Trazado 879471" d="M186.839,97.3a4.114,4.114,0,1,0-4.114,4.114A4.119,4.119,0,0,0,186.839,97.3Zm-5.549,0a1.435,1.435,0,1,1,1.435,1.435A1.436,1.436,0,0,1,181.289,97.3Z" transform="translate(-102.055 -76.541)"/>
      <path id="Trazado_879472" data-name="Trazado 879472" d="M248.964,97.3a4.114,4.114,0,1,0-4.114,4.114A4.119,4.119,0,0,0,248.964,97.3Zm-5.549,0a1.435,1.435,0,1,1,1.435,1.435A1.436,1.436,0,0,1,243.414,97.3Z" transform="translate(-153.082 -76.541)"/>
      <path id="Trazado_879473" data-name="Trazado 879473" d="M311.089,97.3a4.114,4.114,0,1,0-4.114,4.114A4.119,4.119,0,0,0,311.089,97.3Zm-5.549,0a1.435,1.435,0,1,1,1.435,1.435A1.436,1.436,0,0,1,305.539,97.3Z" transform="translate(-204.108 -76.541)"/>
    </g>
  </g>
</svg>
