<svg xmlns="http://www.w3.org/2000/svg" width="111.116" height="102.732" viewBox="0 0 111.116 102.732">
  <g id="Grupo_1101501" data-name="Grupo 1101501" transform="translate(-954.442 -16777.996)">
    <path id="_12068" data-name="12068" d="M89.032,72.155c-11.378-1.571-23.4-1.187-33.751,3.786-14.358,6.9-23.789,22.533-24.15,38.458s7.934,31.573,20.751,41.032S81.6,168.243,97.273,165.4c15.8-2.864,30.638-12.15,38.882-25.934,5.286-8.839,7.757-19.754,4.837-29.631-1.763-5.962-5.367-11.244-9.607-15.791A70.98,70.98,0,0,0,89.032,72.155Z" transform="translate(923.323 16714.348)" fill="#26aab7"/>
    <g id="payment-method_1_" data-name="payment-method (1)" transform="translate(966.254 16777.973)">
      <path id="Trazado_879474" data-name="Trazado 879474" d="M107.34,372.017v13.549c7.717.34,5.491,1.7,18.918,7.741a12.708,12.708,0,0,0,9.886-.168l.008,0,26.379-9.445c.858-.395,5.188-2.747,3.48-7.129-2-4.672-7.135-2.723-7.565-2.583l-13.771,3.807" transform="translate(-88.997 -308.426)" fill="#eac092"/>
      <g id="Grupo_1101400" data-name="Grupo 1101400" transform="translate(18.343 54.689)">
        <path id="Trazado_879475" data-name="Trazado 879475" d="M122.922,334.492l15.337,4.86a5.038,5.038,0,0,0,6.224-3.468h0c.761-2.677-.792-5.463-3.859-6.6l-13.605-4.618a11.565,11.565,0,0,0-9.821-4.744c-4.367,0-8.132,3.53-9.856,6.62v6.17" transform="translate(-107.341 -319.921)" fill="#fedbab"/>
      </g>
      <path id="Trazado_879476" data-name="Trazado 879476" d="M154.459,387.274a1.683,1.683,0,0,1-.333-.034,1.655,1.655,0,0,1-.321-.1,1.722,1.722,0,0,1-.294-.157,1.66,1.66,0,0,1-.472-.472,1.581,1.581,0,0,1-.157-.3,1.606,1.606,0,0,1-.1-.32,1.642,1.642,0,0,1,0-.666,1.657,1.657,0,0,1,.1-.321,1.685,1.685,0,0,1,.629-.766,1.735,1.735,0,0,1,.294-.157,1.655,1.655,0,0,1,.321-.1,1.683,1.683,0,0,1,.666,0,1.6,1.6,0,0,1,.32.1,1.686,1.686,0,0,1,.3.157,1.661,1.661,0,0,1,.472.472,1.732,1.732,0,0,1,.157.294,1.784,1.784,0,0,1,.1.321,1.642,1.642,0,0,1,0,.666,1.725,1.725,0,0,1-.1.32,1.686,1.686,0,0,1-.157.3,1.661,1.661,0,0,1-.472.472,1.687,1.687,0,0,1-.3.157,1.6,1.6,0,0,1-.32.1A1.683,1.683,0,0,1,154.459,387.274Z" transform="translate(-126.647 -318.243)"/>
      <rect id="Rectángulo_401562" data-name="Rectángulo 401562" width="6.474" height="18.36" transform="translate(11.87 61.09)" fill="#eaecf0"/>
      <rect id="Rectángulo_401563" data-name="Rectángulo 401563" width="10.161" height="21.545" transform="translate(1.709 61.09)" fill="#3688c8"/>
      <path id="Trazado_879477" data-name="Trazado 879477" d="M78.606,324.457l-.021-.051c-1.573-3.68-5.262-5.041-9.627-3.55l-11.905,3.292a7.8,7.8,0,0,0-4.833-4.759l-.045-.016-13.086-4.442a13.5,13.5,0,0,0-10.889-5.01c-4.464,0-8.414,3.063-10.673,6.4H1.709A1.709,1.709,0,0,0,0,318.032v21.545a1.709,1.709,0,0,0,1.709,1.709h10.16a1.709,1.709,0,0,0,1.709-1.709V338.1h4.765a1.709,1.709,0,0,0,1.709-1.709V335.9c2.778.242,3.691.769,6.242,2.24a103.414,103.414,0,0,0,10.266,5.242l.075.032a15.338,15.338,0,0,0,5.5,1.036,13.621,13.621,0,0,0,5.662-1.212l26.315-9.422c.047-.017.093-.036.138-.056C76.762,332.6,80.509,329.341,78.606,324.457ZM10.16,337.867H3.418V319.74H10.16Zm6.474-3.184H13.578V319.74h3.056Zm56.248-4.058-26.3,9.418-.077.03-.069.03a11.076,11.076,0,0,1-8.51.145A98.989,98.989,0,0,1,28,335.179c-2.8-1.612-4.144-2.39-7.949-2.7V318.712c1.62-2.655,4.761-5.372,8.148-5.372,5.808,0,8.269,3.777,8.365,3.93a1.709,1.709,0,0,0,.907.723L51.052,322.6c2.169.814,3.315,2.672,2.788,4.524a3.33,3.33,0,0,1-4.091,2.3l-15.31-4.852a1.709,1.709,0,0,0-1.032,3.258l15.337,4.86.049.015a6.707,6.707,0,0,0,5.13-.6,6.7,6.7,0,0,0,3.206-4.049q.059-.208.1-.415l12.83-3.554c1.853-.633,4.286-.861,5.369,1.633C76.552,328.653,73.639,330.264,72.881,330.625Z" transform="translate(0 -256.942)"/>
      <path id="Trazado_879478" data-name="Trazado 879478" d="M73.936,25.2,58.758,10.023,39.729,29.052,72.246,61.569,90.2,43.612" transform="translate(-32.94 -8.291)" fill="#26cfad"/>
      <path id="Trazado_879479" data-name="Trazado 879479" d="M151.026,113.962h0l0-.01a8.032,8.032,0,1,0,8.58,8.215" transform="translate(-119.017 -94.46)" fill="#ffd36c"/>
      <path id="Trazado_879480" data-name="Trazado 879480" d="M226.253,47.539V33.99c-7.717-.34-5.49-1.7-18.918-7.741a12.708,12.708,0,0,0-9.886.168l-.008,0-7.959,2.849,8.212,8.212" transform="translate(-157.103 -20.976)" fill="#eac092"/>
      <g id="Grupo_1101401" data-name="Grupo 1101401" transform="translate(6.789 1.732)">
        <path id="Trazado_879481" data-name="Trazado 879481" d="M39.729,90.079l6.451-6.451a9.133,9.133,0,0,1,0,12.9Z" transform="translate(-39.729 -71.05)" fill="#00b192"/>
        <path id="Trazado_879482" data-name="Trazado 879482" d="M192.264,260.969a9.133,9.133,0,0,1,12.9,0l-6.451,6.451Z" transform="translate(-166.198 -215.874)" fill="#00b192"/>
        <path id="Trazado_879483" data-name="Trazado 879483" d="M113.333,16.474l6.451-6.451,6.451,6.451A9.133,9.133,0,0,1,113.333,16.474Z" transform="translate(-100.755 -10.023)" fill="#00b192"/>
        <path id="Trazado_879484" data-name="Trazado 879484" d="M288.554,182.048a9.135,9.135,0,0,0,2.122,9.572l5.379-5.379" transform="translate(-245.58 -152.652)" fill="#00b192"/>
      </g>
      <g id="Grupo_1101402" data-name="Grupo 1101402" transform="translate(31.817 15.841)">
        <path id="Trazado_879485" data-name="Trazado 879485" d="M207.943,97.639l-15.337-4.86a5.038,5.038,0,0,0-6.224,3.468h0c-.761,2.677.792,5.463,3.859,6.6l13.611,4.62-.006,0a11.565,11.565,0,0,0,9.821,4.744c4.367,0,8.132-3.53,9.856-6.62V99.42" transform="translate(-186.19 -92.585)" fill="#fedbab"/>
      </g>
      <path id="Trazado_879486" data-name="Trazado 879486" d="M340.959,126.915a1.683,1.683,0,0,1-.333-.034,1.725,1.725,0,0,1-.32-.1,1.687,1.687,0,0,1-.3-.157,1.661,1.661,0,0,1-.472-.472,1.687,1.687,0,0,1-.157-.3,1.607,1.607,0,0,1-.1-.32,1.641,1.641,0,0,1,0-.666,1.658,1.658,0,0,1,.1-.321,1.734,1.734,0,0,1,.157-.294,1.661,1.661,0,0,1,.472-.472,1.687,1.687,0,0,1,.3-.157,1.606,1.606,0,0,1,.32-.1,1.7,1.7,0,0,1,.988.1,1.734,1.734,0,0,1,.294.157,1.661,1.661,0,0,1,.472.472,1.62,1.62,0,0,1,.157.294,1.661,1.661,0,0,1,.1.321,1.728,1.728,0,0,1,0,.666,1.61,1.61,0,0,1-.1.32,1.58,1.58,0,0,1-.157.3,1.66,1.66,0,0,1-.472.472,1.734,1.734,0,0,1-.294.157,1.808,1.808,0,0,1-.32.1A1.713,1.713,0,0,1,340.959,126.915Z" transform="translate(-281.278 -102.375)"/>
      <rect id="Rectángulo_401564" data-name="Rectángulo 401564" width="6.474" height="18.36" transform="translate(69.15 10.704)" fill="#eaecf0"/>
      <rect id="Rectángulo_401565" data-name="Rectángulo 401565" width="10.161" height="21.545" transform="translate(75.623 7.52)" fill="#3688c8"/>
      <path id="Trazado_879487" data-name="Trazado 879487" d="M110.4,5.811h-10.16A1.709,1.709,0,0,0,98.532,7.52V8.995H93.767A1.709,1.709,0,0,0,92.058,10.7V11.2c-2.778-.242-3.691-.769-6.242-2.24A103.4,103.4,0,0,0,75.55,3.714l-.075-.032a14.538,14.538,0,0,0-11.159.175L57.44,6.32l-5.8-5.8a1.709,1.709,0,0,0-2.417,0L30.2,19.553a1.7,1.7,0,0,0,0,2.417L62.715,54.487a1.846,1.846,0,0,0,2.417,0L82.5,37.114c.452.039.92.06,1.406.06,4.465,0,8.414-3.063,10.673-6.4H110.4a1.709,1.709,0,0,0,1.709-1.709V7.52A1.709,1.709,0,0,0,110.4,5.811ZM54.769,21.659a7.565,7.565,0,0,0,5.12,6.047l.045.016,3.417,1.16a6.323,6.323,0,1,1-8.583-7.223Zm3.418-6.673A6.7,6.7,0,0,0,55.4,17.927,9.74,9.74,0,1,0,66.6,29.984l5.77,1.958a10.91,10.91,0,0,0,1.81,8.661l-3.9,3.9a10.859,10.859,0,0,0-12.712,0L40.179,27.118a10.86,10.86,0,0,0,0-12.713l3.9-3.9a10.86,10.86,0,0,0,12.713,0l3.7,3.7A6.744,6.744,0,0,0,58.188,14.986ZM76.644,38.141a7.474,7.474,0,0,1-1.092-3.554,13.287,13.287,0,0,0,3.014,1.632ZM50.435,4.149,54.33,8.043a7.45,7.45,0,0,1-7.79,0ZM37.718,16.866a7.451,7.451,0,0,1,0,7.79l-3.895-3.895Zm26.206,34-3.894-3.894a7.44,7.44,0,0,1,7.788,0ZM83.911,33.756a12.438,12.438,0,0,1-1.783-.125h-.007a9.788,9.788,0,0,1-6.33-3.464c-.035-.051-.183-.246-.205-.278a1.7,1.7,0,0,0-.942-.783L61.058,24.493c-2.168-.814-3.314-2.67-2.789-4.522v-.008a3.329,3.329,0,0,1,4.089-2.292l15.31,4.852A1.709,1.709,0,0,0,78.7,19.265L66.526,15.406,66.42,15.3l0,0-6.3-6.3,5.418-1.94.059-.022.018-.007.069-.03a11.075,11.075,0,0,1,8.51-.145,98.987,98.987,0,0,1,9.922,5.068c2.8,1.613,4.144,2.39,7.949,2.7V28.383C90.438,31.038,87.3,33.756,83.911,33.756ZM95.476,12.413h3.056V27.355H95.476Zm13.216,14.943h-6.743V9.228h6.743Z" transform="translate(-24.617)"/>
    </g>
  </g>
</svg>
