<svg xmlns="http://www.w3.org/2000/svg" width="115.301" height="95.049" viewBox="0 0 115.301 95.049">
  <g id="Grupo_1101502" data-name="Grupo 1101502" transform="translate(-530.256 -17151.68)">
    <path id="_12068" data-name="12068" d="M89.032,72.155c-11.378-1.571-23.4-1.187-33.751,3.786-14.358,6.9-23.789,22.533-24.15,38.458s7.934,31.573,20.751,41.032S81.6,168.243,97.273,165.4c15.8-2.864,30.638-12.15,38.882-25.934,5.286-8.839,7.757-19.754,4.837-29.631-1.763-5.962-5.367-11.244-9.607-15.791A70.98,70.98,0,0,0,89.032,72.155Z" transform="translate(503.323 17080.348)" fill="#26aab7"/>
    <g id="customer-journey" transform="translate(530.256 17090.703)">
      <g id="Shadow" transform="translate(0.795 61.774)">
        <g id="Grupo_1101409" data-name="Grupo 1101409" transform="translate(0 0)">
          <g id="Grupo_1101403" data-name="Grupo 1101403" transform="translate(2.522 11.871)">
            <path id="Trazado_879488" data-name="Trazado 879488" d="M110.182,170.523C90.631,181,76.617,183.928,68.3,184.544c-10.8.8-18.637-1.8-21.493-7.131-2.908-5.43-.6-14.132,14.6-22.273,7.54-4.039,11.946-9.027,12.086-13.685.093-3.091-1.754-5.962-5.2-8.086-7.872-4.848-24.962-6.216-47.324,5.761l-.481.259-.012.007a2.575,2.575,0,0,1-2.443-4.534c10.654-5.774,21.43-9.237,31.166-10,8.634-.679,16.375.785,21.8,4.123,5.01,3.085,7.8,7.688,7.65,12.627-.2,6.647-5.458,13.065-14.8,18.07-11.1,5.947-14.274,11.97-12.49,15.3,1.408,2.63,6.5,5.173,16.572,4.427,7.816-.579,21.071-3.379,39.828-13.425a2.575,2.575,0,1,1,2.432,4.54Z" transform="translate(-16.685 -124.697)" fill="#6fd7a3"/>
          </g>
          <g id="Grupo_1101406" data-name="Grupo 1101406" transform="translate(45.38 2.671)">
            <path id="Trazado_879489" data-name="Trazado 879489" d="M333.208,104.493H323.45l.411-6.262a1.086,1.086,0,1,0-2.166-.143l-.421,6.4h-9.36l-.813-6.469a1.086,1.086,0,0,0-2.154.271l.779,6.2H299.532a1.085,1.085,0,1,0,0,2.171H310l.56,4.455h-9.217a1.085,1.085,0,0,0,0,2.171h9.49l.769,6.115a1.086,1.086,0,0,0,1.076.95,1.144,1.144,0,0,0,.137-.009,1.086,1.086,0,0,0,.942-1.213l-.735-5.844H320.7l-.388,5.908a1.085,1.085,0,0,0,1.012,1.154c.024,0,.048,0,.072,0a1.085,1.085,0,0,0,1.082-1.015l.4-6.051h8.639a1.085,1.085,0,1,0,0-2.171h-8.5l.293-4.455h9.9a1.085,1.085,0,1,0,0-2.171Zm-12.369,6.626h-8.092l-.56-4.455h8.944Z" transform="translate(-285.294 -93.365)" fill="#dedbee"/>
            <path id="Trazado_879490" data-name="Trazado 879490" d="M306.944,83.906a1.809,1.809,0,0,0-1.419-.687H269.95a4.917,4.917,0,0,0-4.743-2.534h-1.533a1.809,1.809,0,1,0,0,3.619h1.468c1.19-.016,1.594.239,1.8,1.133v.008l4.533,19.145c-2.913.733-4.424,2.894-4.424,5.033a4.867,4.867,0,0,0,1.883,3.784,7.51,7.51,0,0,0,4.767,1.476H297.87a1.809,1.809,0,1,0,0-3.619H273.7c-1.99,0-3.031-.826-3.031-1.642,0-.833,1.041-1.676,3.031-1.676h26.824a1.809,1.809,0,0,0,1.76-1.393l5-21.11A1.809,1.809,0,0,0,306.944,83.906ZM299.1,104.329H275.135l-4.141-17.491h32.244Z" transform="translate(-255.984 -80.234)" fill="#01d0fb"/>
            <g id="Grupo_1101404" data-name="Grupo 1101404">
              <path id="Trazado_879491" data-name="Trazado 879491" d="M239.973,82.938h-5.428a2.262,2.262,0,0,1,0-4.523h5.428a2.262,2.262,0,0,1,0,4.523Z" transform="translate(-232.283 -78.415)" fill="#fd4755"/>
            </g>
            <g id="Grupo_1101405" data-name="Grupo 1101405" transform="translate(15.742 31.665)">
              <path id="Trazado_879492" data-name="Trazado 879492" d="M420.748,240.688a2.985,2.985,0,1,1-2.985-2.985A2.986,2.986,0,0,1,420.748,240.688Z" transform="translate(-394.241 -237.703)" fill="#fd4755"/>
              <path id="Trazado_879493" data-name="Trazado 879493" d="M317.441,240.688a2.985,2.985,0,1,1-2.985-2.985A2.986,2.986,0,0,1,317.441,240.688Z" transform="translate(-311.47 -237.703)" fill="#fd4755"/>
            </g>
          </g>
          <path id="Trazado_879494" data-name="Trazado 879494" d="M371.108,301.669a9.11,9.11,0,0,0-12.846.093l-1.21,1.21-1.21-1.21a9.018,9.018,0,1,0-12.753,12.753l13.963,13.963,13.963-13.963A9.111,9.111,0,0,0,371.108,301.669Z" transform="translate(-273.521 -252.532)" fill="#fd4755"/>
          <g id="Grupo_1101408" data-name="Grupo 1101408">
            <g id="XMLID_77_">
              <g id="Grupo_1101407" data-name="Grupo 1101407">
                <path id="Trazado_879495" data-name="Trazado 879495" d="M41.367,83.662a18.619,18.619,0,0,1-4.99,12.709l-.1-.093-.621-2.253a9.144,9.144,0,0,0-8.4-6.535h-.032l-4.539,6.77-4.539-6.77h-.036a9.14,9.14,0,0,0-8.4,6.535l-.625,2.253-.1.09A18.682,18.682,0,1,1,41.367,83.662Z" transform="translate(-4 -64.979)" fill="#dedbee"/>
                <path id="Trazado_879496" data-name="Trazado 879496" d="M56.387,187.006l.1.093a18.677,18.677,0,0,1-27.388,0l.1-.09.625-2.253a9.14,9.14,0,0,1,8.4-6.535h.036l4.539,6.77,4.539-6.77h.032a9.144,9.144,0,0,1,8.4,6.535Z" transform="translate(-24.11 -155.707)" fill="#9257ff"/>
              </g>
            </g>
            <path id="Trazado_879497" data-name="Trazado 879497" d="M66.124,89.992c0-4.778,2.835-6.606,6.333-6.606s6.333,1.828,6.333,6.606-2.835,10.7-6.333,10.7S66.124,94.769,66.124,89.992Z" transform="translate(-53.774 -79.727)" fill="#ffcebf"/>
          </g>
        </g>
      </g>
      <g id="Base" transform="translate(3.288 62.859)">
        <path id="Trazado_879498" data-name="Trazado 879498" d="M315.954,218.288c-1.56,0-2.235.583-2.235.88,0,.236.579.784,2,.841a13.7,13.7,0,0,0,.513-1.721Z" transform="translate(-254.643 -188.897)" fill="#9be69d"/>
        <path id="Trazado_879499" data-name="Trazado 879499" d="M192.361,281.346c-8.25,0-14-2.248-16.183-6.329-2.5-4.667-.17-12.333,13.866-19.851a33.716,33.716,0,0,0,9.044-6.715l.078.064a7.672,7.672,0,0,0,1.261.821,35.056,35.056,0,0,1-9.641,7.217c-5.344,2.862-9.381,6.026-11.675,9.15s-2.839,6.161-1.547,8.573c1.873,3.5,7.239,5.5,14.722,5.5,1.134,0,2.332-.046,3.559-.137a75.181,75.181,0,0,0,16.269-3.259l1.255,1.255a77.681,77.681,0,0,1-17.407,3.573c-1.234.091-2.445.138-3.6.138Z" transform="translate(-143.742 -213.064)" fill="#9be69d"/>
        <path id="Trazado_879500" data-name="Trazado 879500" d="M220.431,137.413a16.121,16.121,0,0,0-2.521-1.9c-3.985-2.454-9.661-3.805-15.984-3.805H201.7q-.134-.781-.329-1.551.292,0,.575,0c6.711,0,12.515,1.39,16.786,4.021.374.23.744.477,1.1.737Z" transform="translate(-164.63 -118.284)" fill="#9be69d"/>
        <path id="Trazado_879501" data-name="Trazado 879501" d="M329.91,115.727a.8.8,0,0,1-.789.895h-7.345l.137.58h7.481a.8.8,0,0,1,.789.7l.56,4.455a.8.8,0,0,1-.789.895h-6.609l.138.581h6.745a.8.8,0,0,1,.789.7l.437,3.474h.585l-.412-3.276a.8.8,0,0,1,.789-.895h7.676a.8.8,0,0,1,.793.847L340.667,128h.582l.225-3.427a.8.8,0,0,1,.793-.743h5.893l.138-.581H342.41a.8.8,0,0,1-.793-.847l.293-4.455a.8.8,0,0,1,.793-.743h7.027l.137-.58h-7.021a.8.8,0,0,1-.793-.847l.242-3.677h-.582l-.248,3.781a.8.8,0,0,1-.793.743h-9.36a.8.8,0,0,1-.789-.7l-.481-3.828h-.585Zm1.076,1.744a.8.8,0,0,1,.6-.269h8.944a.795.795,0,0,1,.793.847l-.293,4.455a.8.8,0,0,1-.793.743h-8.092a.8.8,0,0,1-.789-.7l-.56-4.455a.8.8,0,0,1,.193-.625Z" transform="translate(-261.098 -103.816)" fill="#f9f7f8"/>
        <path id="Trazado_879502" data-name="Trazado 879502" d="M352.224,240.015l-.016-.04h11.719l-.016.04Z" transform="translate(-285.48 -206.273)" fill="#62dbfb"/>
        <path id="Trazado_879503" data-name="Trazado 879503" d="M445.938,234.975a3.792,3.792,0,0,1,1.02,1.469,1,1,0,0,0,.112-.454,1.015,1.015,0,0,0-1.014-1.014Z" transform="translate(-360.578 -202.267)" fill="#62dbfb"/>
        <path id="Trazado_879504" data-name="Trazado 879504" d="M297.529,118.95a3.962,3.962,0,0,1-.581-.385,3.09,3.09,0,0,1-1.214-2.389c0-1.534,1.205-2.829,3.071-3.3a1.8,1.8,0,0,0,1.3-2.147l-4.523-19.1c0-.016-.014-.063-.016-.068a3.2,3.2,0,0,0-1.022-1.776c0-.014,0-.027.007-.041a2.784,2.784,0,0,1,.706.87,1.786,1.786,0,0,0,1.579.948h35.575l.02.025-5,21.11a.017.017,0,0,1-.02.016H300.594c-3.311,0-4.82,1.8-4.82,3.465a3.187,3.187,0,0,0,1.773,2.745Zm.355-27.349a1.789,1.789,0,0,0-1.741,2.2l4.141,17.492a1.783,1.783,0,0,0,1.741,1.377h23.961a1.783,1.783,0,0,0,1.741-1.377L331.87,93.8a1.789,1.789,0,0,0-1.741-2.2Z" transform="translate(-239.283 -85.904)" fill="#62dbfb"/>
        <g id="Grupo_1101410" data-name="Grupo 1101410" transform="translate(45.38 2.671)">
          <path id="Trazado_879505" data-name="Trazado 879505" d="M245.3,84.819a.473.473,0,1,1,0-.945h5.428a.473.473,0,0,1,0,.945Z" transform="translate(-244.823 -83.874)" fill="#fe646f"/>
          <path id="Trazado_879506" data-name="Trazado 879506" d="M428.514,245.553a1.2,1.2,0,1,1,1.2-1.2A1.2,1.2,0,0,1,428.514,245.553Z" transform="translate(-391.04 -211.496)" fill="#fe646f"/>
          <path id="Trazado_879507" data-name="Trazado 879507" d="M325.208,245.553a1.2,1.2,0,1,1,1.2-1.2A1.2,1.2,0,0,1,325.208,245.553Z" transform="translate(-308.27 -211.496)" fill="#fe646f"/>
          <path id="Trazado_879508" data-name="Trazado 879508" d="M355.106,316.921a7.373,7.373,0,0,1-2.173-5.19,7.1,7.1,0,0,1,7.15-7.2,7.368,7.368,0,0,1,5.244,2.173l1.21,1.21a1.789,1.789,0,0,0,2.53,0l1.21-1.21a7.368,7.368,0,0,1,5.244-2.173,7.115,7.115,0,0,1,5.072,2.079,7.3,7.3,0,0,1-.094,10.316l-12.7,12.7Z" transform="translate(-331.442 -260.663)" fill="#fe646f"/>
        </g>
        <path id="Trazado_879509" data-name="Trazado 879509" d="M47.805,96.207a11.092,11.092,0,0,0-9.8-6.838h-.032a1.79,1.79,0,0,0-.291.024,15.73,15.73,0,0,0,3.874-10.48c0-5.257-3.036-8.395-8.122-8.395s-8.122,3.138-8.122,8.395a15.73,15.73,0,0,0,3.873,10.48,1.814,1.814,0,0,0-.289-.023h-.036a11.08,11.08,0,0,0-9.8,6.836,16.895,16.895,0,1,1,28.742,0ZM30.663,90.581a5.113,5.113,0,0,0,5.545,0l-2.773,4.136Z" transform="translate(-16.541 -70.437)" fill="#f9f7f8"/>
        <path id="Trazado_879510" data-name="Trazado 879510" d="M54.622,195.241a16.994,16.994,0,0,1-11.637-4.652l.4-1.44a7.557,7.557,0,0,1,5.794-5.113l3.959,5.905a1.789,1.789,0,0,0,2.972,0l3.96-5.906a7.454,7.454,0,0,1,5.8,5.13l.394,1.428A17.012,17.012,0,0,1,54.622,195.241Z" transform="translate(-37.728 -161.452)" fill="#be9bff"/>
        <path id="Trazado_879511" data-name="Trazado 879511" d="M83.209,102.568c-2.081,0-4.544-4.828-4.544-8.906,0-3.241,1.486-4.817,4.544-4.817s4.544,1.576,4.544,4.817C87.753,97.74,85.29,102.568,83.209,102.568Z" transform="translate(-66.315 -85.186)" fill="#ffdfcf"/>
      </g>
      <g id="Outline" transform="translate(0 60.979)">
        <path id="Trazado_879512" data-name="Trazado 879512" d="M364.133,146.664a.8.8,0,0,0,.789.7h8.092a.8.8,0,0,0,.793-.743l.293-4.455a.795.795,0,0,0-.793-.847h-8.944a.8.8,0,0,0-.789.895Zm8.136-.894h-6.646l-.36-2.865h7.194Z" transform="translate(-291.293 -125.344)"/>
        <path id="Trazado_879513" data-name="Trazado 879513" d="M307.953,126.107a.8.8,0,0,0,.774.612h23.961a.8.8,0,0,0,.774-.612l4.141-17.491a.8.8,0,0,0-.774-.978H304.585a.8.8,0,0,0-.774.978Zm-2.362-16.879h7.146l.369,2.934h-6.821Zm19.22,2.934H316.9l-.369-2.934H325Zm-9.4.894a.8.8,0,0,0,.789.7h9.36a.8.8,0,0,0,.793-.743l.248-3.781h.582l-.242,3.677a.8.8,0,0,0,.793.847h7.021l-.137.58h-7.027a.8.8,0,0,0-.793.743l-.293,4.455a.8.8,0,0,0,.793.847h5.888l-.138.581h-5.893a.8.8,0,0,0-.793.743l-.225,3.427h-.582l.218-3.323a.8.8,0,0,0-.793-.847H317.3a.8.8,0,0,0-.789.895l.412,3.276h-.585l-.437-3.474a.8.8,0,0,0-.789-.7h-6.745l-.138-.581h6.609a.8.8,0,0,0,.789-.895l-.56-4.455a.8.8,0,0,0-.789-.7H306.8l-.137-.58h7.345a.8.8,0,0,0,.789-.895l-.456-3.63h.585Zm19.723-.894H328.58l.193-2.934h7.051Zm-6.984,6.626.188-2.865h5.906l-.678,2.865Zm-.247,3.761h4.772l-.611,2.58h-4.331Zm-9.7,0h5.926l-.17,2.58h-5.432Zm-4.624-6.626.36,2.865h-6.084l-.678-2.865Zm-4.834,6.626h5.667l.324,2.58h-5.38Z" transform="translate(-243.4 -98.362)"/>
        <path id="Trazado_879514" data-name="Trazado 879514" d="M92.046,107.513a9.935,9.935,0,0,0-7.072,2.929l-.648.648-.648-.648a9.936,9.936,0,0,0-7.072-2.929,9.684,9.684,0,0,0-9.735,9.808,9.941,9.941,0,0,0,2.929,7l.164.164A71.872,71.872,0,0,1,54.5,127.563c-1.164.086-2.3.13-3.368.13-7.541,0-11.372-2.138-12.444-4.139-.8-1.485-.315-3.553,1.352-5.823,2.067-2.815,5.806-5.72,10.813-8.4a36.839,36.839,0,0,0,10.807-8.308A3.775,3.775,0,0,0,68.6,99.89H81.744a3.777,3.777,0,0,0,7.432-.253,2.6,2.6,0,0,0-1.114-4.955H65.334a14.932,14.932,0,0,0,.459-1.727H90.719a2.6,2.6,0,0,0,2.534-2l5-21.11a2.6,2.6,0,0,0-2.535-3.2H60.6A5.737,5.737,0,0,0,55.458,64.1a3.032,3.032,0,0,0-1.593-.453H48.437a3.057,3.057,0,0,0,0,6.114h5.428a3.036,3.036,0,0,0,1.594-.454c.772,0,.8.083.9.506l.005.024,1.769,7.471-.088-.056c-4.679-2.881-10.952-4.4-18.142-4.4-.81,0-1.635.022-2.466.062a19.475,19.475,0,1,0,1.521,7.545c0-.293-.008-.583-.02-.873.322-.007.639-.012.943-.012,5.851,0,11.046,1.215,14.629,3.421,2.66,1.638,4.288,3.731,4.712,6a5.848,5.848,0,0,0-2.77,4.842,5.431,5.431,0,0,0,.511,2.288,29.22,29.22,0,0,1-9.3,7.264c-15.716,8.418-18.014,17.581-14.924,23.349C35.4,131.7,41.955,134.43,51.2,134.43c1.22,0,2.5-.049,3.791-.145a82.732,82.732,0,0,0,20.32-4.451l8.448,8.449a.8.8,0,0,0,1.125,0l13.963-13.963a9.89,9.89,0,0,0,.093-13.97,9.681,9.681,0,0,0-6.9-2.836ZM84.326,136.6l-13.4-13.4a8.36,8.36,0,0,1-2.464-5.886,8.093,8.093,0,0,1,8.144-8.206,8.356,8.356,0,0,1,5.947,2.464l1.21,1.21a.8.8,0,0,0,1.124,0l1.21-1.21a8.356,8.356,0,0,1,5.947-2.464,8.1,8.1,0,0,1,5.774,2.37,8.3,8.3,0,0,1-.094,11.722ZM51.2,132.84c-8.634,0-14.692-2.434-17.06-6.854-2.727-5.091-.409-13.332,14.273-21.2a31.5,31.5,0,0,0,9.451-7.281,6.12,6.12,0,0,0,.763.731,7.106,7.106,0,0,0,2.269,1.2,34.352,34.352,0,0,1-10.8,8.485c-5.214,2.793-9.137,5.857-11.344,8.862-2.05,2.791-2.573,5.46-1.472,7.515,1.669,3.117,6.846,4.978,13.846,4.978,1.11,0,2.283-.045,3.486-.134a74.517,74.517,0,0,0,16.621-3.395l2.827,2.827A80.18,80.18,0,0,1,54.877,132.7C53.62,132.792,52.384,132.84,51.2,132.84Zm6.838-39c0-2,1.5-3.678,3.823-4.262a.8.8,0,0,0,.58-.954L57.916,69.5c0-.015-.006-.029-.01-.043v0A1.97,1.97,0,0,0,56.68,67.9a3.041,3.041,0,0,0,.114-2.062A3.8,3.8,0,0,1,59.44,67.8a.8.8,0,0,0,.7.421H95.717a1.014,1.014,0,0,1,.987,1.248l-5,21.11a1.01,1.01,0,0,1-.987.781H63.9c-2.629,0-3.826,1.281-3.826,2.471,0,.95.785,1.958,2.478,2.308a3.793,3.793,0,0,0-1.23,1.759,5.5,5.5,0,0,1-1.692-.9,4.078,4.078,0,0,1-1.585-3.164ZM37.367,80.457a17.818,17.818,0,0,1-3.882,11.12l-.263-.953A9.962,9.962,0,0,0,24.05,83.49h-.032a.8.8,0,0,0-.66.352l-3.879,5.785L15.6,83.842a.8.8,0,0,0-.66-.352H14.9a9.955,9.955,0,0,0-9.165,7.118l-.268.967a17.886,17.886,0,1,1,31.9-11.117ZM7.276,91.015a8.446,8.446,0,0,1,7.247-5.923L18.818,91.5a.8.8,0,0,0,1.321,0l4.295-6.406a8.453,8.453,0,0,1,7.251,5.939L32.228,93a17.88,17.88,0,0,1-25.5,0Zm30.74-16.537c.634-.024,1.264-.037,1.885-.037,6.9,0,12.88,1.441,17.307,4.168q.771.475,1.466,1l2.048,8.65-.025.01c-.614-2.541-2.458-4.842-5.356-6.628-3.83-2.358-9.321-3.657-15.463-3.657-.347,0-.708.005-1.077.014a19.308,19.308,0,0,0-.785-3.519Zm8.954-7.77a1.469,1.469,0,0,1,1.466-1.467h5.428a1.467,1.467,0,0,1,0,2.933H48.437A1.468,1.468,0,0,1,46.971,66.707ZM89.076,97.286a1,1,0,0,1-.113.454,3.791,3.791,0,0,0-1.02-1.469h.118a1.016,1.016,0,0,1,1.014,1.014Zm-3.638,4a2.19,2.19,0,1,1,2.19-2.19A2.193,2.193,0,0,1,85.439,101.285Zm-20.536,0a2.19,2.19,0,1,1,2.19-2.19A2.193,2.193,0,0,1,64.9,101.285Zm2.5-5.014H82.934a3.777,3.777,0,0,0-1.19,2.028H68.6A3.775,3.775,0,0,0,67.407,96.271Zm-3.752-1.6c-1.416-.057-2-.6-2-.841,0-.3.675-.88,2.235-.88h.273A13.737,13.737,0,0,1,63.655,94.675Z" transform="translate(0 -60.979)"/>
        <path id="Trazado_879515" data-name="Trazado 879515" d="M76.381,86.787c0-4.7-2.6-7.4-7.128-7.4s-7.128,2.7-7.128,7.4c0,5.313,3.114,11.49,7.128,11.49S76.381,92.1,76.381,86.787Zm-7.128-5.811c2.526,0,5.538,1.008,5.538,5.811,0,4.364-2.608,9.9-5.538,9.9s-5.538-5.536-5.538-9.9C63.715,81.984,66.727,80.976,69.253,80.976Z" transform="translate(-49.775 -75.727)"/>
      </g>
    </g>
  </g>
</svg>
