<svg xmlns="http://www.w3.org/2000/svg" width="111.116" height="109.754" viewBox="0 0 111.116 109.754">
  <g id="Grupo_1101504" data-name="Grupo 1101504" transform="translate(-534.442 -17678)">
    <path id="_12068" data-name="12068" d="M89.032,72.155c-11.378-1.571-23.4-1.187-33.751,3.786-14.358,6.9-23.789,22.533-24.15,38.458s7.934,31.573,20.751,41.032S81.6,168.243,97.273,165.4c15.8-2.864,30.638-12.15,38.882-25.934,5.286-8.839,7.757-19.754,4.837-29.631-1.763-5.962-5.367-11.244-9.607-15.791A70.98,70.98,0,0,0,89.032,72.155Z" transform="translate(503.323 17621.373)" fill="#26aab7"/>
    <g id="Shopping" transform="translate(539.141 17677.992)">
      <path id="Trazado_879536" data-name="Trazado 879536" d="M28.69,13.94h8.75V28.1H28.69Z" transform="translate(-5.41 13.63) rotate(-21.589)" fill="#ffab8a"/>
      <path id="Trazado_879537" data-name="Trazado 879537" d="M26.39,16.05l.75,1.89,3.72-1.47a1.44,1.44,0,0,1,1.85,1.91l-2.82,6.51,1.71,4.33,2.58-1,3.37-7.76-3-7.61Z" fill="#ff8867"/>
      <path id="Trazado_879538" data-name="Trazado 879538" d="M75,19.49,85.47,45.95,44.61,62.11,34.33,36.12,46.82,7.29Z" fill="#ffb080"/>
      <path id="Trazado_879539" data-name="Trazado 879539" d="M73.93,23.41l7.92,20a1.24,1.24,0,0,1-.69,1.6l-34,13.46a1.22,1.22,0,0,1-1.59-.69L37.79,38.24a5.38,5.38,0,0,1,.07-4.13l9.51-21.95a1.81,1.81,0,0,1,2.38-.94l21.3,9.22a5.41,5.41,0,0,1,2.88,2.97Z" fill="#ffd894"/>
      <path id="Trazado_879540" data-name="Trazado 879540" d="M37,36.16C51.4,2.86,52.19,1,37,36.17Z" fill="#ffb080"/>
      <path id="Trazado_879541" data-name="Trazado 879541" d="M73.11,21.33c0,.1.35.16-25-10.83Z" fill="#ffb080"/>
      <path id="Trazado_879542" data-name="Trazado 879542" d="M63.16,21.24l-18.71,7.4a1,1,0,0,1-1.25-1.3l5.65-13a1,1,0,0,1,1.29-.51l13,5.65a1,1,0,0,1,.02,1.76Z" fill="#fff1ad"/>
      <path id="Trazado_879543" data-name="Trazado 879543" d="M52.94,17.66,51,16.81a.53.53,0,0,0-.69.28L49.45,19a.53.53,0,0,0,.68.71l2.79-1.11a.52.52,0,0,0,.02-.94Z" fill="#fff"/>
      <path id="Trazado_879544" data-name="Trazado 879544" d="M80.72,18.24l-.63,1.47a1.82,1.82,0,0,1-2.4.95L46.82,7.29,33.45,38.15a1.82,1.82,0,0,1-2.4,1l-1.46-.64a1.81,1.81,0,0,1-.95-2.4L43.31,2.18a2,2,0,0,1,2.58-1L79.77,15.84a1.82,1.82,0,0,1,.95,2.4Z" fill="#e66f49"/>
      <path id="Trazado_879545" data-name="Trazado 879545" d="M80.58,16.52a.71.71,0,0,1-.9,1L45.55,2.73a.7.7,0,0,0-.91.36c-.07.16-12.2,28.14-14.78,34.14a.71.71,0,0,1-1.34-.11c-.15-.78-1.23,2.05,14.8-34.94a2,2,0,0,1,2.57-1C82.45,17,80.13,15.82,80.58,16.52Z" fill="#ff974e"/>
      <path id="Trazado_879546" data-name="Trazado 879546" d="M62.5,29.82H77.75v21.4H62.5Z" transform="translate(-9.99 28.62) rotate(-21.589)" fill="#f02f62"/>
      <rect id="Rectángulo_401572" data-name="Rectángulo 401572" width="16.55" height="11.6" rx="1.02" transform="translate(67.969 50.886) rotate(-111.589)" fill="#ff4d6c"/>
      <rect id="Rectángulo_401573" data-name="Rectángulo 401573" width="7.94" height="2.47" rx="0.35" transform="translate(64.285 36.523) rotate(-21.589)" fill="#fff"/>
      <path id="Trazado_879547" data-name="Trazado 879547" d="M58.86,30.51H74.11v1.64H58.86Z" transform="translate(-6.86 26.64) rotate(-21.589)" fill="#b92053"/>
      <path id="Trazado_879548" data-name="Trazado 879548" d="M55.24,34.9l3.81,9.62a.86.86,0,0,1-.48,1.11l-12.6,5a.85.85,0,0,1-1.1-.48L41.06,40.5Z" fill="#cef0fc"/>
      <rect id="Rectángulo_401574" data-name="Rectángulo 401574" width="12.81" height="9.29" rx="0.65" transform="translate(42.557 40.943) rotate(-21.589)" fill="#fffffc"/>
      <path id="Trazado_879549" data-name="Trazado 879549" d="M60.11,27.42h11a2.15,2.15,0,0,1,2.15,2.15v1.12H58V29.57a2.15,2.15,0,0,1,2.11-2.15Z" transform="translate(-6.09 26.15) rotate(-21.589)" fill="#e16a3f"/>
      <path id="Trazado_879550" data-name="Trazado 879550" d="M61,28.43h9.63a1,1,0,0,1,1,1v1.24H60V29.41a1,1,0,0,1,1-1Z" transform="translate(-6.25 26.26) rotate(-21.589)" fill="#f5923f"/>
      <path id="Trazado_879551" data-name="Trazado 879551" d="M42.07,34.55H53a2.15,2.15,0,0,1,2.15,2.15v1.12H39.93V36.7a2.15,2.15,0,0,1,2.15-2.15Z" transform="translate(-9.97 20.02) rotate(-21.589)" fill="#e16a3f"/>
      <path id="Trazado_879552" data-name="Trazado 879552" d="M42.93,35.56h9.63a1,1,0,0,1,1,1V37.8H41.94V36.54a1,1,0,0,1,1-1Z" transform="translate(-10.14 20.12) rotate(-21.589)" fill="#f5923f"/>
      <circle id="Elipse_11622" data-name="Elipse 11622" cx="1.26" cy="1.26" r="1.26" transform="translate(65.43 40.61)" fill="#405075"/>
      <rect id="Rectángulo_401575" data-name="Rectángulo 401575" width="4.2" height="12.31" rx="1.82" transform="translate(34.646 8.268) rotate(68.411)" fill="#ff5b49"/>
      <rect id="Rectángulo_401576" data-name="Rectángulo 401576" width="4.2" height="6.49" rx="1.82" transform="translate(31.949 9.335) rotate(68.411)" fill="#ff7449"/>
      <path id="Trazado_879553" data-name="Trazado 879553" d="M56,50.67l-4.67,1.85a.62.62,0,0,1-.81-.35.63.63,0,0,1,.35-.81l4.67-1.84a.62.62,0,0,1,.81.35.61.61,0,0,1-.35.8Z" fill="#fffbc6"/>
      <path id="Trazado_879554" data-name="Trazado 879554" d="M69.08,80.72H30.87a2.68,2.68,0,0,1-2.66-2.08,2.61,2.61,0,0,1,2.56-3.13H68.16v-4.6H30.77a7.21,7.21,0,0,0-7.19,7.74A7.39,7.39,0,0,0,31,85.32H69a2.3,2.3,0,0,0,.08-4.6Z" fill="#deeaff"/>
      <path id="Trazado_879555" data-name="Trazado 879555" d="M26.88,77.68a2.11,2.11,0,0,0,1.74-1,2.57,2.57,0,0,1,2.15-1.16H68.16v-4.6H30.77a7.17,7.17,0,0,0-6.09,3.35,2.23,2.23,0,0,0,1.89,3.42Z" fill="#caccff"/>
      <path id="Trazado_879556" data-name="Trazado 879556" d="M81.47,48.71C75.8,64.42,78,58.34,71.8,75.52H33.22c-6.87-19-3.91-10.87-9.67-26.81Z" fill="#97d7fc"/>
      <path id="Trazado_879557" data-name="Trazado 879557" d="M68.25,52.56a1.54,1.54,0,0,1,1.47,2c-.06.17-5,16.14-5,16a1.53,1.53,0,0,1-1.46,1.08H41.76a1.53,1.53,0,0,1-1.46-1.08l-5-16a1.54,1.54,0,0,1,1.47-2Z" fill="#bff5fc"/>
      <path id="Trazado_879558" data-name="Trazado 879558" d="M38.55,75.51l-13.36-37a2.68,2.68,0,0,0-2.5-1.77H11.55a2.3,2.3,0,1,0,0,4.6h9.34L33.23,75.51Z" fill="#deeaff"/>
      <path id="Trazado_879559" data-name="Trazado 879559" d="M25.19,38.47a2.68,2.68,0,0,0-2.5-1.77h-7a2.3,2.3,0,1,0,0,4.6h5.2l.87,2.43A2.514,2.514,0,1,0,26.48,42Z" fill="#f7f9ff"/>
      <circle id="Elipse_11623" data-name="Elipse 11623" cx="4.84" cy="4.84" r="4.84" transform="translate(33.71 85.32)" fill="#405075"/>
      <circle id="Elipse_11624" data-name="Elipse 11624" cx="4.84" cy="4.84" r="4.84" transform="translate(58.79 85.32)" fill="#405075"/>
      <g id="Grupo_1101425" data-name="Grupo 1101425">
        <path id="Trazado_879560" data-name="Trazado 879560" d="M86.4,45.59,76.82,21.37l.47.2A2.83,2.83,0,0,0,81,20.1l.63-1.46a2.81,2.81,0,0,0-1.47-3.72L46.29.24A3,3,0,0,0,42.4,1.78L36.57,15.25l-.81-2.05a2.83,2.83,0,0,0,.69-3.09l-.21-.53A2.83,2.83,0,0,0,32.58,8l-8.06,3.19a2.81,2.81,0,0,0-1.59,3.65l.21.53a2.81,2.81,0,0,0,2.61,1.78L30.52,29.2l-2.8,6.46a2.81,2.81,0,0,0,1.47,3.72,6.66,6.66,0,0,0,2.59.87,2.8,2.8,0,0,0,2.5-1.53l3.56,9H29.59l-3.46-9.58a3.68,3.68,0,0,0-3.44-2.43H11.55a3.3,3.3,0,1,0,0,6.6h8.63c4.59,12.69,7.67,21.21,10,27.64a8.21,8.21,0,0,0-7.57,8.78A8.39,8.39,0,0,0,31,86.32h3.12a5.83,5.83,0,1,0,8.77,0H59.25a5.83,5.83,0,1,0,8.77,0h1.06a3.3,3.3,0,0,0,0-6.6H30.87a1.61,1.61,0,1,1-.1-3.21h41a1,1,0,0,0,.94-.66c3-8.29,6.77-18.8,9.66-26.8a1.06,1.06,0,0,0,0-.8l3.47-1.37a1,1,0,0,0,.56-1.29ZM25,14.63l-.21-.52a.82.82,0,0,1,.46-1.06c8.85-3.5,8.16-3.25,8.37-3.25a.82.82,0,0,1,.76.52l.21.52a.82.82,0,0,1-.42,1.05L26.1,15.07a.82.82,0,0,1-1.1-.44Zm2.69,2L34,14.12l1.47,3.72-3.8,8.76Zm4.85,21.15a.83.83,0,0,1-1.09.43c-1.59-.69-1.75-.69-1.91-1.09S28.46,39,44.23,2.58A1,1,0,0,1,45.12,2c.3,0-2.07-1,34.26,14.76a.81.81,0,0,1,.5.76c0,.21,0,.16-.71,1.79a.82.82,0,0,1-1.08.43L47.22,6.37a1,1,0,0,0-1.31.52Zm8.72.53a.69.69,0,0,1,.38-.9C53.52,32.7,52.75,33,52.94,33a.69.69,0,0,1,.64.43l.37.93C52,35.1,52.42,35,41.62,39.2Zm27.87,11.4c-.83,4.19-.54,2.66-1.07,5.39h-7.3c0-.56,0,.31.39-5.39ZM59.29,31.15a.7.7,0,0,1,.39-.9l11.05-4.36a.69.69,0,0,1,.89.38l.37.93L59.66,32.07Zm13.43-2.09,7.13,18-1.54.61H65.85L60.4,33.93ZM66.11,64.88H60l.57-7.78h7Zm-25.55,0H35.78L33,57.1h6Zm.49-7.78H48.1c.47,6.51.19,2.68.57,7.78H42.6Zm9.05,0h8.51c-.06.79,0-.32-.57,7.78H50.67C50.07,56.63,50.33,60.12,50.1,57.1Zm8.66-2H50l-.36-4.85L51,49.71h8.19Zm-5.93-8.28-1.32-3.35,5.23-2.07,1.32,3.35C52.12,47.11,52.93,46.82,52.83,46.82Zm-2.06-5.21-1.32-3.35c.41-.2-1.53.61,5.23-2.06L56,39.54ZM47.59,39l1.32,3.34-5.23,2.07-1.32-3.34Zm-3.17,7.27,5.23-2.07L51,47.55c-.52.21.41.16-6,.16Zm3.14,3.44c.11,1.65,0,.51.39,5.39h-7.3c-.15-.77,0,.12-1.07-5.39Zm-10,0,1.07,5.39H32.25l-1.94-5.39ZM42.4,90.16a3.82,3.82,0,1,0-.02,0Zm25.09,0a3.829,3.829,0,1,0-.02,0ZM30.77,74.51a3.61,3.61,0,0,0-3.54,4.32,3.66,3.66,0,0,0,3.64,2.89H69.08a1.3,1.3,0,0,1,0,2.6H31a6.38,6.38,0,0,1-6.47-5.74,6.21,6.21,0,0,1,6.2-6.67c.13,0,0-.29,1,2.6Zm3.16,0C32.48,70.5,23.27,45,21.83,41a1,1,0,0,0-.94-.66H11.55a1.3,1.3,0,1,1,0-2.6H22.69a1.66,1.66,0,0,1,1.56,1.11c3.46,9.59,11.46,31.8,12.87,35.7Zm5.32,0c-1.14-3.17-.69-1.9-2.75-7.63H41c.76,3.86.39,2,1.52,7.63Zm5.27,0c-1.15-5.74-.77-3.84-1.52-7.63h5.81c.43,5.71.1,1.29.56,7.63Zm6.86,0c-.23-3.12-.42-5.72-.56-7.63H57.9c-.48,6.54-.09,1.15-.56,7.63Zm8,0c.47-6.49.13-1.93.56-7.63h5.81C65,70.65,65.3,69,64.19,74.51Zm11.77,0H66.23c1.09-5.45.78-3.89,1.52-7.63h6.11Zm3.47-9.63H68.15L69.7,57.1h7.69Zm3.53-9.78h-8c.87-4.38.65-3.3,1.07-5.39H80.1Zm3.6-8.74c-6.41-16.2,1.18,3-8.23-20.82A2.69,2.69,0,0,0,70,24L59,28.39a2.7,2.7,0,0,0-1.52,3.49c1,2.58-.11-.3,6.26,15.83H56l3.72-1.47a1,1,0,0,0,.56-1.3c0-.1-3.75-9.46-4.85-12.27A2.69,2.69,0,0,0,52,31.16L41,35.52A2.69,2.69,0,0,0,39.4,39c.94,2.39,2.35,6,3.44,8.7H40L35.41,36.14c4.47-10.32,9-20.66,11.94-27.54L74.23,20.25l9.94,25.14Z" fill="#302d3d"/>
        <path id="Trazado_879561" data-name="Trazado 879561" d="M67.15,41.89,67,41.55a1,1,0,1,0-1.86.74c.08.21.27,1,1.06,1a1,1,0,0,0,.95-1.4Z" fill="#302d3d"/>
      </g>
    </g>
  </g>
</svg>
