<svg xmlns="http://www.w3.org/2000/svg" width="111.116" height="100.707" viewBox="0 0 111.116 100.707">
  <g id="Grupo_1101505" data-name="Grupo 1101505" transform="translate(-954.442 -17687.047)">
    <path id="_12068" data-name="12068" d="M89.032,72.155c-11.378-1.571-23.4-1.187-33.751,3.786-14.358,6.9-23.789,22.533-24.15,38.458s7.934,31.573,20.751,41.032S81.6,168.243,97.273,165.4c15.8-2.864,30.638-12.15,38.882-25.934,5.286-8.839,7.757-19.754,4.837-29.631-1.763-5.962-5.367-11.244-9.607-15.791A70.98,70.98,0,0,0,89.032,72.155Z" transform="translate(923.323 17621.373)" fill="#26aab7"/>
    <g id="Online_Shopping-Shopping-Smartphone-Shopping_Bag-Commerce" data-name="Online Shopping-Shopping-Smartphone-Shopping Bag-Commerce" transform="translate(974.997 17685.047)">
      <path id="Trazado_879562" data-name="Trazado 879562" d="M51.542,10.789V57.524a7.789,7.789,0,0,1-7.789,7.789H17.789a7.806,7.806,0,0,1-6.751-3.895v-.013A7.71,7.71,0,0,1,10,57.524V10.789A7.789,7.789,0,0,1,17.789,3H43.753a7.789,7.789,0,0,1,7.763,7.2C51.529,10.4,51.542,10.594,51.542,10.789Z" transform="translate(2.386 0.298)" fill="#5aaae7"/>
      <path id="Trazado_879563" data-name="Trazado 879563" d="M45.393,11.25V46.937A19.368,19.368,0,0,1,39.746,43.2L30.62,44.9l4.725-8A19.473,19.473,0,0,1,45.393,11.25Z" transform="translate(8.534 2.758)" fill="#3d9ae2"/>
      <path id="Trazado_879564" data-name="Trazado 879564" d="M70.357,30.848a19.473,19.473,0,0,1-22.549,15.8,16.787,16.787,0,0,1-1.817-.415,19.378,19.378,0,0,1-8.243-4.66l-9.126,1.7,4.725-8a19.469,19.469,0,1,1,37.011-4.427Z" transform="translate(7.938 1.79)" fill="#ffd422"/>
      <path id="Trazado_879565" data-name="Trazado 879565" d="M41,20V35.578a2.6,2.6,0,0,0,2.6,2.6H56.578a2.6,2.6,0,0,0,2.6-2.6V20Z" transform="translate(11.629 5.367)" fill="#ebbf00"/>
      <path id="Trazado_879566" data-name="Trazado 879566" d="M57.175,28v2.6a2.6,2.6,0,0,1-2.6,2.6H41.6A2.6,2.6,0,0,1,39,30.6V28Z" transform="translate(11.033 7.753)" fill="#d1d3d4"/>
      <path id="Trazado_879567" data-name="Trazado 879567" d="M39,18H57.175V30.982H39Z" transform="translate(11.033 4.771)" fill="#3d9ae2"/>
      <path id="Trazado_879568" data-name="Trazado 879568" d="M29.789,43a2.6,2.6,0,0,1,0,5.193H24.6A2.6,2.6,0,0,1,24.6,43Z" transform="translate(5.964 12.226)" fill="#e6e7e8"/>
      <path id="Trazado_879569" data-name="Trazado 879569" d="M23.168,43.82a3.91,3.91,0,0,1-.519,1.947l-.428.753A2.467,2.467,0,0,1,22,45.495a2.538,2.538,0,0,1,.766-1.83,2.932,2.932,0,0,1,.376-.325c.013.156.026.325.026.48Z" transform="translate(5.964 12.327)" fill="#e6e7e8"/>
      <path id="Trazado_879570" data-name="Trazado 879570" d="M24.869,20.519A5.2,5.2,0,1,1,21.2,19a5.2,5.2,0,0,1,3.674,1.519Z" transform="translate(4.172 5.069)" fill="#3d9ae2"/>
      <path id="Trazado_879571" data-name="Trazado 879571" d="M22.869,18.519A5.2,5.2,0,1,1,19.2,17a5.2,5.2,0,0,1,3.674,1.519Z" transform="translate(3.576 4.473)" fill="#ffd422"/>
      <path id="Trazado_879572" data-name="Trazado 879572" d="M26.238,45.494a3.895,3.895,0,0,0-7.27-1.947l-5.842,10.1a7.71,7.71,0,0,1-1.039-3.882V29.02a2.6,2.6,0,0,0-2,1.48L4.194,43.287A12.862,12.862,0,0,0,3,48.713V71.834l20.771-.013V66.187a7.82,7.82,0,0,0-1.116-4.011l-2.778-4.622,5.842-10.113a3.91,3.91,0,0,0,.519-1.947Z" transform="translate(0.298 8.057)" fill="#ffc477"/>
      <path id="Trazado_879573" data-name="Trazado 879573" d="M18,6h2.6V8.6H18Z" transform="translate(4.771 1.193)"/>
      <path id="Trazado_879574" data-name="Trazado 879574" d="M22,6H32.385V8.6H22Z" transform="translate(5.964 1.193)"/>
      <path id="Trazado_879575" data-name="Trazado 879575" d="M52.629,57.822a6.5,6.5,0,0,1-6.491,6.491H22.423l4.463-7.729a3.839,3.839,0,0,0-.221,1.238,3.9,3.9,0,0,0,3.895,3.895h5.193a3.895,3.895,0,1,0,0-7.789H30.56A3.884,3.884,0,0,0,27.4,55.559a5.18,5.18,0,0,0-9.256-4.61L13.733,58.6a6.456,6.456,0,0,1-.049-.776V11.087A6.5,6.5,0,0,1,20.175,4.6H46.138A6.517,6.517,0,0,1,51.76,7.842l2.247-1.3A9.124,9.124,0,0,0,46.138,2H20.175a9.1,9.1,0,0,0-9.087,9.087V36.142a3.9,3.9,0,0,0-1.88,1.871L3.315,50.8A14.094,14.094,0,0,0,2,56.783V79.891H4.6V56.783a11.506,11.506,0,0,1,1.075-4.9l5.416-11.751V57.822a9.052,9.052,0,0,0,1.154,4.428,1.3,1.3,0,0,0,2.312.116L20.4,52.248a2.6,2.6,0,1,1,4.5,2.6L19.05,64.962a1.3,1.3,0,0,0,.012,1.319L21.843,70.9a6.514,6.514,0,0,1,.928,3.347v5.629h2.6V74.249a9.1,9.1,0,0,0-1.3-4.683l-1.6-2.657H46.138a9.1,9.1,0,0,0,9.087-9.087V51.331h-2.6Zm-22.069-1.3h5.193a1.3,1.3,0,0,1,0,2.6H30.56a1.3,1.3,0,0,1,0-2.6Z" transform="translate(0)"/>
      <path id="Trazado_879576" data-name="Trazado 879576" d="M68.5,15.859a20.771,20.771,0,0,0-36.31,19.616L27.8,42.913a1.3,1.3,0,0,0,.052,1.4,1.323,1.323,0,0,0,1.311.532l8.477-1.584a20.692,20.692,0,0,0,10.23,4.972,21.55,21.55,0,0,0,3.622.312A20.771,20.771,0,0,0,68.5,15.859Zm.883,15.072a18.175,18.175,0,0,1-30.442,10,1.312,1.312,0,0,0-.9-.351,1.411,1.411,0,0,0-.234.013l-6.322,1.181,3.271-5.53a1.353,1.353,0,0,0,.078-1.181,18.173,18.173,0,1,1,34.545-4.128Z" transform="translate(7.64 1.485)"/>
      <path id="Trazado_879577" data-name="Trazado 879577" d="M57.473,18.491H53.578v-1.3a5.193,5.193,0,1,0-10.385,0v1.3H39.3a1.3,1.3,0,0,0-1.3,1.3V35.367a3.906,3.906,0,0,0,3.895,3.895H54.876a3.906,3.906,0,0,0,3.895-3.895V19.789A1.3,1.3,0,0,0,57.473,18.491Zm-11.684-1.3a2.6,2.6,0,1,1,5.193,0v1.3H45.789ZM56.175,35.367a1.3,1.3,0,0,1-1.3,1.3H41.895a1.3,1.3,0,0,1-1.3-1.3v-1.3H56.175Zm0-3.895H40.6V21.087h2.6v2.6h2.6v-2.6h5.193v2.6h2.6v-2.6h2.6Z" transform="translate(10.735 2.982)"/>
      <path id="Trazado_879578" data-name="Trazado 879578" d="M25.073,15.293l-2,2a6.51,6.51,0,1,0,1.836,1.836l2-2ZM23.394,22.7A3.895,3.895,0,1,1,19.5,18.807a3.831,3.831,0,0,1,1.668.389l-3.884,3.884,1.836,1.836L23,21.034a3.831,3.831,0,0,1,.389,1.668Z" transform="translate(3.271 3.964)"/>
      <path id="Trazado_879579" data-name="Trazado 879579" d="M25,18h5.193v2.6H25Z" transform="translate(6.858 4.771)"/>
      <path id="Trazado_879580" data-name="Trazado 879580" d="M25,22h5.193v2.6H25Z" transform="translate(6.858 5.964)"/>
    </g>
  </g>
</svg>
