<svg xmlns="http://www.w3.org/2000/svg" width="111.116" height="101.639" viewBox="0 0 111.116 101.639">
  <g id="Grupo_1101507" data-name="Grupo 1101507" transform="translate(-534.442 -18052.115)">
    <path id="_12068" data-name="12068" d="M89.032,72.155c-11.378-1.571-23.4-1.187-33.751,3.786-14.358,6.9-23.789,22.533-24.15,38.458s7.934,31.573,20.751,41.032S81.6,168.243,97.273,165.4c15.8-2.864,30.638-12.15,38.882-25.934,5.286-8.839,7.757-19.754,4.837-29.631-1.763-5.962-5.367-11.244-9.607-15.791A70.98,70.98,0,0,0,89.032,72.155Z" transform="translate(503.323 17987.373)" fill="#26aab7"/>
    <g id="sale_1_" data-name="sale (1)" transform="translate(559 18052.115)">
      <path id="Trazado_879581" data-name="Trazado 879581" d="M68.1,53v4.026H1V53Z" transform="translate(0.342 18.123)" fill="#e6ecf4"/>
      <path id="Trazado_879582" data-name="Trazado 879582" d="M68.1,54.026H1V50H68.1Z" transform="translate(0.342 17.097)" fill="#d8e0eb"/>
      <path id="Trazado_879583" data-name="Trazado 879583" d="M68.1,56v4.026H1V56Z" transform="translate(0.342 19.149)" fill="#d8e0eb"/>
      <path id="Trazado_879584" data-name="Trazado 879584" d="M1,17V61.284H18.445V53.233H38.7l2.2-2.644L40.507,42.9l1.543-.4H38.575v-6.71h6.71v5.864l2.925-.765,4.375-6.441,7.461,2.738,7.461-2.738.59.872V17ZM13.091,55.916H6.381v-6.71h6.71Zm0-13.419H6.381v-6.71h6.71Zm0-13.419H6.381v-6.71h6.71Zm9.394-6.71h6.7v6.7h-6.7Zm0,20.129v-6.71h6.71V42.5ZM45.271,29.064h-6.7v-6.7h6.7Zm16.1-.013c0,.013,0,.013-.013.013H54.691c-.013,0-.013,0-.013-.013V22.381c0-.013,0-.013.013-.013h6.669c.013,0,.013,0,.013.013Z" transform="translate(0.342 5.813)" fill="#e6ecf4"/>
      <g id="Grupo_1101426" data-name="Grupo 1101426" transform="translate(6.723 28.181)">
        <path id="Trazado_879585" data-name="Trazado 879585" d="M29,37.71h3.476l3.234-.845V31H29Z" transform="translate(3.193 -17.581)" fill="#cad1e1"/>
        <path id="Trazado_879586" data-name="Trazado 879586" d="M40.909,37.71h3.476l3.234-.845V31h-6.71Z" transform="translate(7.266 -17.581)" fill="#cad1e1"/>
        <path id="Trazado_879587" data-name="Trazado 879587" d="M5.01,31h6.71v6.71H5.01Z" transform="translate(-5.01 -17.581)" fill="#cad1e1"/>
        <path id="Trazado_879588" data-name="Trazado 879588" d="M17.01,31h6.71v6.71H17.01Z" transform="translate(-0.907 -17.581)" fill="#cad1e1"/>
        <path id="Trazado_879589" data-name="Trazado 879589" d="M41.013,21h6.669a.013.013,0,0,1,.013.013v6.669a.013.013,0,0,1-.013.013H41.013A.013.013,0,0,1,41,27.683V21.013A.013.013,0,0,1,41.013,21Z" transform="translate(7.297 -21)" fill="#cad1e1"/>
        <path id="Trazado_879590" data-name="Trazado 879590" d="M29,21h6.7v6.7H29Z" transform="translate(3.193 -21)" fill="#cad1e1"/>
        <path id="Trazado_879591" data-name="Trazado 879591" d="M17.01,21h6.7v6.7h-6.7Z" transform="translate(-0.907 -21)" fill="#cad1e1"/>
        <path id="Trazado_879592" data-name="Trazado 879592" d="M5.01,41h6.71v6.71H5.01Z" transform="translate(-5.01 -14.161)" fill="#cad1e1"/>
        <path id="Trazado_879593" data-name="Trazado 879593" d="M16.919,41h6.71v6.71h-6.71Z" transform="translate(-0.938 -14.161)" fill="#cad1e1"/>
        <path id="Trazado_879594" data-name="Trazado 879594" d="M28.829,41h6.71v6.71h-6.71Z" transform="translate(3.135 -14.161)" fill="#cad1e1"/>
        <path id="Trazado_879595" data-name="Trazado 879595" d="M5.01,21h6.71v6.71H5.01Z" transform="translate(-5.01 -21)" fill="#cad1e1"/>
      </g>
      <circle id="Elipse_11625" data-name="Elipse 11625" cx="4" cy="4" r="4" transform="translate(63 66.885)" fill="#e6ecf4"/>
      <circle id="Elipse_11626" data-name="Elipse 11626" cx="4.026" cy="4.026" r="4.026" transform="translate(48.149 50.994)" fill="#e6ecf4"/>
      <path id="Trazado_879596" data-name="Trazado 879596" d="M38.368,11.732v3.905A1.455,1.455,0,0,1,36.919,17.1l-2.456.013A1.466,1.466,0,0,1,33,15.651V3.935a3,3,0,0,1,.792-2.067,2.582,2.582,0,0,1,1.892-.859,2.811,2.811,0,0,1,2.684,2.925Z" transform="translate(11.284 0.345)" fill="#e6ecf4"/>
      <path id="Trazado_879597" data-name="Trazado 879597" d="M68.1,13.106v6.629H1V13.106A4.106,4.106,0,0,1,5.106,9h2.6v3.905a1.466,1.466,0,0,0,1.463,1.463h2.442a1.466,1.466,0,0,0,1.463-1.463V9h6.71v3.892a1.466,1.466,0,0,0,1.463,1.463h2.442a1.466,1.466,0,0,0,1.463-1.463V9h6.71v3.905a1.466,1.466,0,0,0,1.463,1.463l2.456-.013a1.455,1.455,0,0,0,1.449-1.463V9h6.71v3.918a1.466,1.466,0,0,0,1.463,1.463l2.456-.013a1.455,1.455,0,0,0,1.449-1.463V9h6.71v3.918a1.466,1.466,0,0,0,1.463,1.463l2.456-.013a1.455,1.455,0,0,0,1.449-1.463V9h2.6A4.106,4.106,0,0,1,68.1,13.106Z" transform="translate(0.342 3.078)" fill="#ff5666"/>
      <path id="Trazado_879598" data-name="Trazado 879598" d="M57.613,38.712a2.691,2.691,0,0,1,.148,3.8l-16.1,17.418a2.687,2.687,0,0,1-3.945-3.65l16.1-17.418A2.691,2.691,0,0,1,57.613,38.712Z" transform="translate(12.651 12.993)" fill="#e6ecf4"/>
      <path id="Trazado_879599" data-name="Trazado 879599" d="M69.59,46.144l5.005,6-5.005,6,.389,7.689-7.7,2.013L57.9,74.284,50.44,71.547l-7.461,2.738L38.6,67.843l-4.267-1.114V48.787H29.09l2.2-2.644L30.9,38.454l1.543-.4,3.234-.845,2.925-.765L42.979,30l7.461,2.738L57.9,30l.59.872,3.784,5.569,7.7,2.013Zm-9.125-.9a2.687,2.687,0,1,0-3.945-3.65l-16.1,17.418a2.687,2.687,0,1,0,3.945,3.65Zm.711,15.62A4.02,4.02,0,1,0,60,63.713,4.026,4.026,0,0,0,61.176,60.865Zm-14.922-16.1a4.026,4.026,0,1,0-4.026,4.026A4.026,4.026,0,0,0,46.253,44.761Z" transform="translate(9.947 10.258)" fill="#ff5666"/>
      <path id="Trazado_879600" data-name="Trazado 879600" d="M47.368,11.732v3.905A1.455,1.455,0,0,1,45.919,17.1l-2.456.013A1.466,1.466,0,0,1,42,15.651V3.935a3,3,0,0,1,.792-2.067,2.582,2.582,0,0,1,1.892-.859,2.811,2.811,0,0,1,2.684,2.925Z" transform="translate(14.362 0.345)" fill="#e6ecf4"/>
      <path id="Trazado_879601" data-name="Trazado 879601" d="M34.129,44V69.5H14V44Z" transform="translate(4.787 15.046)" fill="#66a9ff"/>
      <path id="Trazado_879602" data-name="Trazado 879602" d="M29.121,44h5.247V69.5H29V44Z" transform="translate(9.916 15.046)" fill="#5699f4"/>
      <path id="Trazado_879603" data-name="Trazado 879603" d="M29.368,11.736v3.892a1.455,1.455,0,0,1-1.449,1.463l-2.456.013A1.466,1.466,0,0,1,24,15.641V3.925a3.02,3.02,0,0,1,.792-2.067A2.534,2.534,0,0,1,26.684,1a2.811,2.811,0,0,1,2.684,2.925Z" transform="translate(8.207 0.342)" fill="#e6ecf4"/>
      <path id="Trazado_879604" data-name="Trazado 879604" d="M20.368,11.732v3.892a1.466,1.466,0,0,1-1.463,1.463H16.463A1.466,1.466,0,0,1,15,15.624V3.935a3.074,3.074,0,0,1,.778-2.067A2.633,2.633,0,0,1,17.67,1.01a2.813,2.813,0,0,1,2.7,2.925Z" transform="translate(5.129 0.345)" fill="#e6ecf4"/>
      <path id="Trazado_879605" data-name="Trazado 879605" d="M11.368,11.732v3.905A1.466,1.466,0,0,1,9.905,17.1H7.463A1.466,1.466,0,0,1,6,15.637V3.935a3.079,3.079,0,0,1,.792-2.08A2.57,2.57,0,0,1,8.684,1.01a2.811,2.811,0,0,1,2.684,2.925Z" transform="translate(2.052 0.345)" fill="#e6ecf4"/>
      <path id="Trazado_879606" data-name="Trazado 879606" d="M1.342,65.97A1.341,1.341,0,0,1,0,64.628V43.882a1.342,1.342,0,1,1,2.684,0V64.628A1.341,1.341,0,0,1,1.342,65.97Z" transform="translate(0 14.546)"/>
      <path id="Trazado_879607" data-name="Trazado 879607" d="M10.342,10.686a1.342,1.342,0,1,1,0-2.684h6.71a1.342,1.342,0,0,1,0,2.684Z" transform="translate(3.078 2.736)"/>
      <path id="Trazado_879608" data-name="Trazado 879608" d="M1.342,57.037A1.341,1.341,0,0,1,0,55.695V13.448A5.454,5.454,0,0,1,5.444,8L8.049,8h0a1.342,1.342,0,1,1,0,2.684l-2.607,0a2.768,2.768,0,0,0-2.764,2.764V55.695a1.341,1.341,0,0,1-1.342,1.342Z" transform="translate(0 2.735)"/>
      <path id="Trazado_879609" data-name="Trazado 879609" d="M35.052,10.688h0l-6.71-.005a1.342,1.342,0,1,1,0-2.684h0L35.053,8a1.342,1.342,0,0,1,0,2.684Z" transform="translate(9.232 2.735)"/>
      <path id="Trazado_879610" data-name="Trazado 879610" d="M26.052,10.686h0l-6.71,0a1.342,1.342,0,1,1,0-2.684h0l6.71,0a1.342,1.342,0,0,1,0,2.684Z" transform="translate(6.155 2.735)"/>
      <path id="Trazado_879611" data-name="Trazado 879611" d="M68.439,18.685H1.342a1.342,1.342,0,0,1,0-2.684h67.1a1.342,1.342,0,1,1,0,2.684Z" transform="translate(0 5.472)"/>
      <path id="Trazado_879612" data-name="Trazado 879612" d="M18.787,57.684H1.342a1.342,1.342,0,1,1,0-2.684H18.787a1.342,1.342,0,1,1,0,2.684Z" transform="translate(0 18.807)"/>
      <path id="Trazado_879613" data-name="Trazado 879613" d="M18.787,51.684H1.342a1.342,1.342,0,1,1,0-2.684H18.787a1.342,1.342,0,1,1,0,2.684Z" transform="translate(0 16.755)"/>
      <path id="Trazado_879614" data-name="Trazado 879614" d="M18.787,54.684H1.342a1.342,1.342,0,1,1,0-2.684H18.787a1.342,1.342,0,1,1,0,2.684Z" transform="translate(0 17.781)"/>
      <path id="Trazado_879615" data-name="Trazado 879615" d="M18.787,60.684H1.342a1.342,1.342,0,0,1,0-2.684H18.787a1.342,1.342,0,0,1,0,2.684Z" transform="translate(0 19.833)"/>
      <path id="Trazado_879616" data-name="Trazado 879616" d="M12.059,29.393H5.351a1.341,1.341,0,0,1-1.342-1.342V21.343A1.341,1.341,0,0,1,5.351,20h6.708A1.341,1.341,0,0,1,13.4,21.343v6.708a1.341,1.341,0,0,1-1.342,1.342ZM6.693,26.709h4.024V22.685H6.693Z" transform="translate(1.371 6.839)"/>
      <path id="Trazado_879617" data-name="Trazado 879617" d="M12.062,39.394H5.351a1.341,1.341,0,0,1-1.342-1.342v-6.71A1.341,1.341,0,0,1,5.351,30h6.711A1.341,1.341,0,0,1,13.4,31.342v6.71a1.341,1.341,0,0,1-1.342,1.342ZM6.693,36.71H10.72V32.684H6.693Z" transform="translate(1.371 10.258)"/>
      <path id="Trazado_879618" data-name="Trazado 879618" d="M12.059,49.393H5.351a1.341,1.341,0,0,1-1.342-1.342V41.343A1.341,1.341,0,0,1,5.351,40h6.708A1.341,1.341,0,0,1,13.4,41.343v6.708a1.341,1.341,0,0,1-1.342,1.342ZM6.693,46.709h4.024V42.685H6.693Z" transform="translate(1.371 13.678)"/>
      <path id="Trazado_879619" data-name="Trazado 879619" d="M24.049,29.382h-6.7a1.341,1.341,0,0,1-1.342-1.342v-6.7A1.341,1.341,0,0,1,17.351,20h6.7a1.341,1.341,0,0,1,1.342,1.342v6.7a1.341,1.341,0,0,1-1.342,1.342ZM18.693,26.7h4.014V22.684H18.693Z" transform="translate(5.474 6.839)"/>
      <path id="Trazado_879620" data-name="Trazado 879620" d="M24.063,39.394H17.351a1.341,1.341,0,0,1-1.342-1.342V31.34A1.341,1.341,0,0,1,17.351,30h6.712a1.341,1.341,0,0,1,1.342,1.342v6.712a1.341,1.341,0,0,1-1.342,1.342Zm-5.37-2.684h4.028V32.682H18.693Z" transform="translate(5.474 10.258)"/>
      <path id="Trazado_879621" data-name="Trazado 879621" d="M10.25,18.779H7.8a2.8,2.8,0,0,1-2.8-2.8V4.277A4.4,4.4,0,0,1,6.144,1.3,3.878,3.878,0,0,1,9.026.012a4.155,4.155,0,0,1,4.026,4.266v11.7a2.8,2.8,0,0,1-2.8,2.8ZM9.026,2.7a1.226,1.226,0,0,0-.9.413,1.727,1.727,0,0,0-.438,1.169v11.7A.117.117,0,0,0,7.8,16.1H10.25a.117.117,0,0,0,.118-.118V4.277A1.478,1.478,0,0,0,9.026,2.7Z" transform="translate(1.71 0.004)"/>
      <path id="Trazado_879622" data-name="Trazado 879622" d="M34.8,18.79a2.8,2.8,0,0,1-2.8-2.8V4.275A4.379,4.379,0,0,1,33.14,1.3,3.887,3.887,0,0,1,36.025.01h0a4.155,4.155,0,0,1,4.023,4.266V15.981a2.807,2.807,0,0,1-2.793,2.8l-2.448.007Zm1.224-16.1a1.229,1.229,0,0,0-.908.422,1.7,1.7,0,0,0-.434,1.16V15.989l.119.118,2.448-.007a.118.118,0,0,0,.117-.119V4.275a1.478,1.478,0,0,0-1.341-1.582Z" transform="translate(10.942 0.003)"/>
      <path id="Trazado_879623" data-name="Trazado 879623" d="M19.25,18.77H16.8a2.8,2.8,0,0,1-2.8-2.8V4.277A4.158,4.158,0,0,1,18.014.012h.014a3.889,3.889,0,0,1,2.756,1.157,4.409,4.409,0,0,1,1.267,3.109V15.968a2.8,2.8,0,0,1-2.8,2.8ZM18.028,2.7h0a1.479,1.479,0,0,0-1.339,1.582V15.968a.117.117,0,0,0,.118.118H19.25a.117.117,0,0,0,.118-.118V4.277A1.706,1.706,0,0,0,18.89,3.07a1.214,1.214,0,0,0-.862-.375Z" transform="translate(4.787 0.004)"/>
      <path id="Trazado_879624" data-name="Trazado 879624" d="M43.8,18.793a2.8,2.8,0,0,1-2.8-2.8V4.278a4.033,4.033,0,1,1,8.052,0V15.983a2.807,2.807,0,0,1-2.793,2.8l-2.448.008Zm1.225-16.1a1.48,1.48,0,0,0-1.343,1.583V15.991l.119.118,2.448-.008a.118.118,0,0,0,.117-.118V4.278a1.479,1.479,0,0,0-1.341-1.583Z" transform="translate(14.018 0.004)"/>
      <path id="Trazado_879625" data-name="Trazado 879625" d="M36.034,29.382H29.346a1.341,1.341,0,0,1-.949-.393,1.4,1.4,0,0,1-.257-.355,1.343,1.343,0,0,1-.142-.6V21.346a1.341,1.341,0,0,1,.393-.949,1.358,1.358,0,0,1,.954-.4h6.687a1.341,1.341,0,0,1,.949.393,1.358,1.358,0,0,1,.4.954v6.687a1.343,1.343,0,0,1-.142.6,1.4,1.4,0,0,1-.257.355,1.341,1.341,0,0,1-.949.393ZM30.683,26.7H34.7V22.683H30.683Z" transform="translate(9.574 6.839)"/>
      <path id="Trazado_879626" data-name="Trazado 879626" d="M48.029,29.382H41.354A1.361,1.361,0,0,1,40,28.028V21.352A1.36,1.36,0,0,1,41.354,20h6.676a1.359,1.359,0,0,1,1.352,1.352v6.676A1.36,1.36,0,0,1,48.029,29.382ZM42.684,26.7H46.7V22.684H42.684Z" transform="translate(13.678 6.839)"/>
      <path id="Trazado_879627" data-name="Trazado 879627" d="M25.809,18.782A2.805,2.805,0,0,1,23,15.979V4.267a4.033,4.033,0,1,1,8.052,0V15.972a2.807,2.807,0,0,1-2.793,2.8l-2.448.008Zm1.22-16.1a1.48,1.48,0,0,0-1.343,1.583V15.979l.123,1.461,0-1.342,2.448-.008a.118.118,0,0,0,.117-.118V4.267a1.479,1.479,0,0,0-1.341-1.583Z" transform="translate(7.863 0)"/>
      <path id="Trazado_879628" data-name="Trazado 879628" d="M53.052,39.738A1.341,1.341,0,0,1,51.71,38.4V13.448a2.767,2.767,0,0,0-2.764-2.764h-2.6a1.342,1.342,0,0,1,0-2.684h2.6a5.454,5.454,0,0,1,5.448,5.448V38.4a1.341,1.341,0,0,1-1.342,1.342Z" transform="translate(15.388 2.736)"/>
      <path id="Trazado_879629" data-name="Trazado 879629" d="M44.052,10.683h-6.71a1.342,1.342,0,0,1,0-2.684h6.71a1.342,1.342,0,0,1,0,2.684Z" transform="translate(12.31 2.735)"/>
      <path id="Trazado_879630" data-name="Trazado 879630" d="M58.243,75.968a1.326,1.326,0,0,1-.463-.083l-7-2.567-7,2.567a1.338,1.338,0,0,1-1.573-.506l-4.093-6.023L34.34,68.37a1.342,1.342,0,0,1,.679-2.6l4.267,1.114a1.338,1.338,0,0,1,.771.545l3.787,5.574,6.476-2.376a1.337,1.337,0,0,1,.925,0l6.476,2.376,3.787-5.574a1.343,1.343,0,0,1,.771-.545l6.646-1.736-.334-6.6a1.342,1.342,0,0,1,.311-.928l4.288-5.138L68.9,47.346a1.342,1.342,0,0,1-.311-.928l.334-6.6-6.646-1.736a1.344,1.344,0,0,1-.771-.545l-3.787-5.574-6.476,2.376a1.337,1.337,0,0,1-.925,0l-6.476-2.376-3.787,5.574a1.343,1.343,0,0,1-.771.545L32.64,39.818l.334,6.6a1.344,1.344,0,0,1-.309.927l-2.2,2.643A1.342,1.342,0,0,1,28.4,48.271l1.866-2.241L29.9,38.864a1.344,1.344,0,0,1,1-1.367l7.214-1.884,4.093-6.024a1.338,1.338,0,0,1,1.573-.506l7,2.567,7-2.567a1.337,1.337,0,0,1,1.573.506l4.093,6.024L70.66,37.5a1.344,1.344,0,0,1,1,1.367L71.3,46.03l4.669,5.595a1.342,1.342,0,0,1,0,1.719L71.3,58.939l.363,7.166a1.344,1.344,0,0,1-1,1.367l-7.214,1.884L59.353,75.38a1.341,1.341,0,0,1-1.11.588Z" transform="translate(9.605 9.916)"/>
      <path id="Trazado_879631" data-name="Trazado 879631" d="M40.025,62.473a4.025,4.025,0,0,1-2.955-6.758L53.173,38.3a4.026,4.026,0,0,1,5.913,5.465l-16.1,17.419a4.042,4.042,0,0,1-2.958,1.293Zm16.1-22.788h-.052a1.328,1.328,0,0,0-.93.43l-16.1,17.42a1.343,1.343,0,0,0,.075,1.9,1.377,1.377,0,0,0,1.9-.075l16.1-17.419a1.343,1.343,0,0,0-.987-2.254Z" transform="translate(12.31 12.653)"/>
      <path id="Trazado_879632" data-name="Trazado 879632" d="M40.245,47.738a5.368,5.368,0,1,1,5.368-5.368,5.368,5.368,0,0,1-5.368,5.368Zm0-8.052a2.684,2.684,0,1,0,2.684,2.684,2.684,2.684,0,0,0-2.684-2.684Z" transform="translate(11.926 12.653)"/>
      <path id="Trazado_879633" data-name="Trazado 879633" d="M51.368,59.736a5.368,5.368,0,1,1,5.368-5.368,5.368,5.368,0,0,1-5.368,5.368Zm0-8.052a2.684,2.684,0,1,0,2.684,2.684A2.684,2.684,0,0,0,51.368,51.684Z" transform="translate(15.73 16.755)"/>
      <path id="Trazado_879634" data-name="Trazado 879634" d="M39.839,71.181h-25.5A1.341,1.341,0,0,1,13,69.838v-25.5A1.341,1.341,0,0,1,14.342,43h25.5a1.341,1.341,0,0,1,1.342,1.342v25.5a1.341,1.341,0,0,1-1.342,1.342ZM15.684,68.5H38.5V45.684H15.684Z" transform="translate(4.445 14.704)"/>
      <path id="Trazado_879635" data-name="Trazado 879635" d="M28.394,47.394a1.341,1.341,0,0,1-1.342-1.342V43.116a2.7,2.7,0,0,0-5.368,0v2.921a1.342,1.342,0,0,1-2.684,0V43.116a5.374,5.374,0,0,1,10.736,0v2.936a1.341,1.341,0,0,1-1.342,1.342Z" transform="translate(6.497 12.994)"/>
      <path id="Trazado_879636" data-name="Trazado 879636" d="M29.342,71.181A1.341,1.341,0,0,1,28,69.839v-25.5a1.342,1.342,0,1,1,2.684,0v25.5a1.341,1.341,0,0,1-1.342,1.342Z" transform="translate(9.575 14.704)"/>
      <path id="Trazado_879637" data-name="Trazado 879637" d="M32.817,39.394H29.342A1.341,1.341,0,0,1,28,38.052v-6.71A1.341,1.341,0,0,1,29.342,30h6.71a1.341,1.341,0,0,1,1.342,1.342v5.864a1.342,1.342,0,1,1-2.684,0V32.684H30.684V36.71h2.133a1.342,1.342,0,1,1,0,2.684Z" transform="translate(9.575 10.258)"/>
    </g>
  </g>
</svg>
