<svg xmlns="http://www.w3.org/2000/svg" width="111.116" height="104.461" viewBox="0 0 111.116 104.461">
  <g id="Grupo_1101506" data-name="Grupo 1101506" transform="translate(-954.442 -18049.293)">
    <path id="_12068" data-name="12068" d="M89.032,72.155c-11.378-1.571-23.4-1.187-33.751,3.786-14.358,6.9-23.789,22.533-24.15,38.458s7.934,31.573,20.751,41.032S81.6,168.243,97.273,165.4c15.8-2.864,30.638-12.15,38.882-25.934,5.286-8.839,7.757-19.754,4.837-29.631-1.763-5.962-5.367-11.244-9.607-15.791A70.98,70.98,0,0,0,89.032,72.155Z" transform="translate(923.323 17987.373)" fill="#26aab7"/>
    <g id="location" transform="translate(944.976 18047.883)">
      <path id="Trazado_879638" data-name="Trazado 879638" d="M94.1,224.555c0,2.584-11.713,4.678-26.162,4.678-4.239,0-8.241-.182-11.783-.5-8.532-.77-14.379-2.351-14.379-4.178a.8.8,0,0,1,0-.085c.182-1.791,5.978-3.336,14.376-4.093,3.542-.318,7.544-.5,11.783-.5C82.386,219.877,94.1,221.971,94.1,224.555Z" transform="translate(-2.875 -152.277)" fill="#7d6eb2"/>
      <path id="Trazado_879639" data-name="Trazado 879639" d="M56.029,229.716c-8.532-.77-14.379-2.351-14.379-4.178a.794.794,0,0,1,0-.085c.182-1.791,5.978-3.336,14.376-4.093-4.436,1.2-7.017,2.633-7.017,4.178S51.594,228.519,56.029,229.716Z" transform="translate(-2.788 -153.311)" fill="#62529b"/>
      <path id="Trazado_879640" data-name="Trazado 879640" d="M166.968,229.867c8.532-.764,14.381-2.341,14.382-4.168a.8.8,0,0,0,0-.085c-.181-1.791-5.975-3.34-14.373-4.1,4.435,1.2,7.015,2.638,7.014,4.183S171.4,228.674,166.968,229.867Z" transform="translate(-90.138 -153.416)" fill="#62529b"/>
      <path id="Trazado_879641" data-name="Trazado 879641" d="M78.223,71.757a3.03,3.03,0,0,1-5.3,0L55.866,40.978c-8.758-15.8,2.19-35.56,19.706-35.56s28.465,19.756,19.706,35.56Z" transform="translate(-10.549 -2.794)" fill="#ffd947"/>
      <circle id="Elipse_11627" data-name="Elipse 11627" cx="15.572" cy="15.572" r="15.572" transform="translate(49.452 10.189)" fill="#ffefee"/>
      <path id="Trazado_879642" data-name="Trazado 879642" d="M117.24,78.2H106.054a1.515,1.515,0,0,1-1.515-1.515V65.5a1.515,1.515,0,0,1,1.515-1.515H117.24a1.515,1.515,0,0,1,1.515,1.515V76.685A1.515,1.515,0,0,1,117.24,78.2Z" transform="translate(-46.623 -43.616)" fill="#ff4a73"/>
      <path id="Trazado_879645" data-name="Trazado 879645" d="M110.6,78.2h-4.545a1.515,1.515,0,0,1-1.515-1.515V65.495a1.515,1.515,0,0,1,1.515-1.515H110.6a1.515,1.515,0,0,0-1.515,1.515V76.684A1.515,1.515,0,0,0,110.6,78.2Z" transform="translate(-46.624 -43.613)" fill="#f973a3"/>
      <path id="Trazado_879646" data-name="Trazado 879646" d="M137.52,65.495V76.684A1.515,1.515,0,0,1,136,78.2H131.46a1.515,1.515,0,0,0,1.515-1.515V65.495a1.515,1.515,0,0,0-1.515-1.515H136A1.515,1.515,0,0,1,137.52,65.495Z" transform="translate(-65.388 -43.613)" fill="#ea2a6a"/>
      <g id="Grupo_1101427" data-name="Grupo 1101427" transform="translate(37.65 1.409)">
        <path id="Trazado_879647" data-name="Trazado 879647" d="M70.459,66.438,85.79,38.77A25.428,25.428,0,0,0,85.454,13.3a23.5,23.5,0,0,0-40.859,0,25.428,25.428,0,0,0-.336,25.468L59.589,66.438c-4.741.176-21.939,1.06-21.939,5.79,0,5.413,21.927,5.89,27.374,5.89S92.4,77.64,92.4,72.227C92.4,67.5,75.212,66.614,70.459,66.438Zm-5.435,9.256c-14.876,0-23.729-2.16-24.887-3.466,1.045-1.182,8.38-3.06,20.769-3.408,2.365,4.253,6.242,3.585,8.235,0,12.389.348,19.724,2.227,20.769,3.408C88.753,73.533,79.9,75.694,65.024,75.694ZM46.682,14.532a21.073,21.073,0,0,1,36.684,0,23.024,23.024,0,0,1,.3,23.063C65.481,70.423,66.608,68.476,66.324,68.767a1.827,1.827,0,0,1-2.6,0c-.284-.292.874,1.712-17.345-31.173a23.024,23.024,0,0,1,.3-23.063Z" transform="translate(-37.65 -1.409)" fill="#5f266d"/>
        <path id="Trazado_879648" data-name="Trazado 879648" d="M89.385,59.957A16.783,16.783,0,1,0,72.6,43.175,16.8,16.8,0,0,0,89.385,59.957Zm0-31.143A14.36,14.36,0,1,1,75.024,43.175,14.378,14.378,0,0,1,89.385,28.814Z" transform="translate(-62.011 -18.821)" fill="#5f266d"/>
        <path id="Trazado_879649" data-name="Trazado 879649" d="M103.267,62.939h11.186a2.731,2.731,0,0,0,2.727-2.727V49.023a2.731,2.731,0,0,0-2.727-2.727h-1.215V44.7c0-5.77-8.756-5.787-8.756-.136V46.3h-1.215a2.731,2.731,0,0,0-2.727,2.727V60.212A2.731,2.731,0,0,0,103.267,62.939Zm-.3-13.916a.3.3,0,0,1,.3-.3h1.215v1.163a1.212,1.212,0,0,0,2.424,0V48.72h3.908v1.163a1.212,1.212,0,0,0,2.424,0V48.72h1.215a.3.3,0,0,1,.3.3V60.212a.3.3,0,0,1-.3.3H103.267a.3.3,0,0,1-.3-.3Zm3.942-4.46c0-2.494,3.908-2.4,3.908.136v1.6h-3.908Z" transform="translate(-81.486 -28.551)" fill="#5f266d"/>
        <path id="Trazado_879650" data-name="Trazado 879650" d="M128.282,197.33l-1.033,2.13a1.211,1.211,0,0,0,2.178,1.06l1.036-2.133A1.212,1.212,0,0,0,128.282,197.33Z" transform="translate(-100.005 -137.492)" fill="#5f266d"/>
        <path id="Trazado_879651" data-name="Trazado 879651" d="M139.85,165.839l-2.642,5.451a1.211,1.211,0,0,0,2.178,1.06l2.645-5.454A1.212,1.212,0,0,0,139.85,165.839Z" transform="translate(-106.947 -115.542)" fill="#5f266d"/>
      </g>
    </g>
  </g>
</svg>
